{"glyphs":{"'":{"x_min":0,"x_max":198,"ha":198,"o":"m 137 639 q 154 634 160 622 q 165 610 166 597 q 167 582 163 564 q 157 541 144 520 q 131 500 114 484 q 98 467 80 456 q 63 445 48 442 q 39 440 28 442 q 17 445 13 454 q 11 460 17 464 q 20 466 24 467 q 41 472 51 486 q 61 500 68 519 q 74 538 78 560 q 81 582 84 603 q 87 621 96 629 q 104 637 113 639 q 124 642 137 639 z"},"=":{"x_min":0,"x_max":451,"ha":451,"o":"m 412 253 q 410 239 402 230 q 394 220 384 214 q 373 209 360 206 q 348 203 338 203 q 294 203 244 202 q 194 201 134 199 q 128 199 120 202 q 112 205 106 212 q 100 219 98 229 q 95 239 100 253 q 104 264 111 271 q 118 278 126 282 q 133 286 140 288 q 148 290 153 290 q 183 292 240 293 q 297 294 378 291 q 383 290 390 288 q 396 287 402 282 q 407 278 410 271 q 414 264 412 253 z m 360 122 q 358 108 350 98 q 342 89 332 83 q 321 77 308 74 q 296 72 286 72 q 242 72 192 71 q 142 70 82 68 q 76 68 68 71 q 60 74 54 81 q 48 88 46 98 q 43 108 48 122 q 52 133 59 140 q 66 147 74 151 q 81 155 88 157 q 96 159 101 159 q 131 161 188 162 q 245 163 326 160 q 331 159 338 158 q 344 156 350 152 q 355 147 358 140 q 362 133 360 122 z"},"a":{"x_min":0,"x_max":426,"ha":426,"o":"m 160 70 q 148 52 131 35 q 117 21 96 7 q 75 -7 47 -13 q 22 -19 2 -12 q -19 -6 -32 14 q -44 34 -46 68 q -48 102 -35 151 q -25 189 -10 220 q 5 252 19 274 q 36 300 53 319 q 69 339 90 356 q 107 370 132 382 q 157 394 186 396 q 214 398 234 387 q 251 378 263 356 q 275 333 268 289 q 277 297 286 300 q 296 302 305 297 q 316 290 320 278 q 323 266 322 253 q 320 240 316 228 q 311 215 307 207 q 291 175 273 138 q 255 101 242 68 q 230 35 226 10 q 223 -16 235 -23 q 246 -18 258 -7 q 270 4 282 18 q 295 32 307 48 q 319 64 330 80 q 356 118 381 162 q 401 196 416 222 q 432 249 442 263 q 444 265 446 266 q 449 268 456 265 q 460 263 457 253 q 448 228 434 197 q 422 171 402 136 q 383 101 355 60 q 338 35 320 12 q 304 -8 284 -27 q 263 -46 243 -55 q 229 -61 219 -62 q 209 -63 201 -61 q 192 -59 186 -54 q 176 -47 170 -38 q 165 -30 162 -22 q 158 -13 157 -3 q 154 11 155 30 q 156 49 160 70 z m 56 21 q 62 24 68 28 q 75 32 80 36 q 86 40 92 46 q 112 63 130 84 q 148 106 162 125 q 178 147 192 169 q 198 184 206 200 q 214 215 222 228 q 231 243 239 257 q 240 262 241 273 q 242 284 241 296 q 240 308 236 318 q 233 328 225 331 q 203 341 170 314 q 138 286 101 236 q 83 212 66 180 q 50 147 38 116 q 27 85 22 60 q 16 35 21 25 q 26 14 36 15 q 47 16 56 21 z"},"L":{"x_min":0,"x_max":1298,"ha":1298,"o":"m 1807 -281 q 1777 -287 1752 -290 q 1727 -293 1709 -294 q 1688 -296 1671 -295 q 1626 -296 1576 -290 q 1525 -284 1474 -274 q 1422 -264 1372 -252 q 1322 -239 1278 -226 q 1235 -213 1200 -202 q 1166 -191 1145 -183 q 1114 -172 1054 -150 q 995 -129 917 -109 q 906 -120 894 -130 q 882 -141 871 -149 q 859 -159 847 -168 q 782 -218 717 -248 q 703 -255 677 -265 q 651 -275 616 -284 q 582 -293 539 -299 q 496 -305 448 -302 q 414 -301 380 -294 q 347 -287 322 -270 q 285 -245 276 -201 q 271 -169 282 -140 q 294 -111 321 -87 q 339 -71 356 -62 q 372 -54 376 -52 q 379 -51 392 -46 q 404 -40 426 -33 q 449 -26 480 -20 q 511 -13 552 -9 q 602 -4 655 -6 q 708 -8 764 -16 q 791 -20 818 -26 q 846 -31 874 -38 q 941 19 996 82 q 1050 144 1088 196 q 1133 257 1168 316 q 1148 305 1128 295 q 1107 285 1085 277 q 973 232 845 229 q 790 227 746 232 q 703 237 671 244 q 634 252 606 262 q 589 269 583 279 q 577 289 576 298 q 575 309 579 319 q 585 331 596 338 q 605 343 619 344 q 633 345 654 331 q 673 318 688 311 q 704 303 744 290 q 785 277 846 274 q 908 272 988 287 q 1068 302 1162 352 q 1180 362 1200 375 q 1223 419 1250 476 q 1278 532 1304 595 q 1326 648 1345 680 q 1364 711 1382 728 q 1399 744 1415 749 q 1431 754 1446 753 q 1452 752 1457 751 q 1462 749 1468 748 q 1473 746 1478 742 q 1483 739 1487 735 q 1496 726 1499 710 q 1500 704 1499 688 q 1498 672 1487 648 q 1481 634 1468 612 q 1456 589 1436 560 q 1415 530 1385 495 q 1355 460 1315 423 q 1302 411 1289 400 q 1276 389 1262 378 q 1240 334 1214 288 q 1188 242 1159 194 q 1064 42 964 -63 q 986 -70 1008 -78 q 1029 -85 1051 -94 q 1133 -126 1202 -150 q 1270 -174 1328 -192 q 1387 -211 1436 -224 q 1485 -237 1528 -246 q 1549 -251 1572 -253 q 1594 -255 1612 -257 q 1633 -259 1653 -260 q 1689 -260 1718 -248 q 1748 -237 1772 -222 q 1795 -208 1813 -194 q 1831 -179 1845 -172 q 1865 -162 1878 -164 q 1890 -165 1898 -171 q 1906 -178 1910 -191 q 1916 -217 1901 -234 q 1886 -250 1865 -261 q 1840 -273 1807 -281 z m 615 -203 q 648 -189 684 -168 q 719 -148 748 -129 q 782 -107 815 -85 q 746 -72 674 -67 q 602 -62 531 -71 q 446 -82 400 -100 q 355 -118 334 -136 q 325 -144 319 -153 q 314 -161 310 -170 q 307 -179 310 -190 q 316 -205 336 -222 q 357 -238 394 -245 q 431 -252 486 -244 q 540 -236 615 -203 z m 1405 689 q 1403 686 1400 682 q 1395 674 1391 664 q 1386 654 1380 641 q 1373 628 1367 611 q 1359 592 1343 552 q 1327 512 1301 457 q 1338 495 1366 534 q 1395 573 1414 606 q 1432 640 1442 664 q 1452 688 1452 697 q 1453 703 1452 707 q 1452 711 1451 713 q 1449 717 1446 718 q 1442 718 1439 718 q 1430 716 1421 708 q 1412 699 1405 689 z"},"3":{"x_min":0,"x_max":641,"ha":641,"o":"m 580 708 q 643 631 607 472 q 606 469 590 418 q 573 366 530 285 l 527 279 q 523 271 519 264 q 515 258 511 250 q 530 218 536 182 q 542 147 540 115 q 539 95 536 77 q 533 59 529 44 q 524 30 514 2 q 503 -25 484 -57 q 435 -133 376 -185 q 314 -238 254 -260 q 195 -281 153 -286 q 151 -286 144 -287 q 136 -288 124 -288 q 111 -288 98 -286 q 85 -285 71 -280 q 57 -276 41 -268 q 25 -259 7 -245 q -24 -222 -43 -188 q -57 -164 -65 -140 q -73 -116 -78 -96 q -83 -73 -85 -51 q -90 -16 -86 10 q -83 33 -72 52 q -61 70 -35 70 q -22 69 -12 63 q -4 58 2 46 q 8 34 5 12 q 3 -4 -4 -32 q -12 -59 -16 -90 q -20 -122 -15 -153 q -10 -184 12 -206 q 34 -227 57 -236 q 80 -244 102 -245 q 123 -246 142 -242 q 161 -238 177 -233 q 191 -228 202 -223 q 214 -218 219 -215 q 244 -200 272 -178 q 301 -157 330 -125 q 359 -93 387 -50 q 415 -7 440 51 q 457 90 456 125 q 456 160 443 191 q 426 180 408 172 q 389 165 371 160 q 342 154 328 167 q 314 180 312 194 q 311 201 314 208 q 317 214 322 218 q 326 223 331 226 q 336 229 339 231 q 369 244 392 262 q 415 281 432 300 q 449 319 460 336 q 470 352 475 361 q 503 418 520 466 q 536 514 542 550 q 552 611 544 647 q 535 683 520 701 q 503 722 480 727 q 457 732 444 732 q 400 730 366 714 q 332 698 307 676 q 282 653 264 627 q 247 601 237 578 q 231 564 223 532 q 215 501 212 448 q 211 440 211 432 q 211 425 210 419 q 206 396 198 387 q 189 378 180 376 q 169 373 156 378 q 132 387 127 410 q 122 432 126 455 q 130 482 144 514 q 146 520 150 528 q 153 535 158 544 q 162 552 169 563 q 187 595 214 632 q 240 669 277 700 q 314 730 360 750 q 407 769 465 766 q 468 766 480 764 q 492 763 508 758 q 525 752 544 740 q 563 729 580 708 z"},"J":{"x_min":0,"x_max":1435,"ha":1435,"o":"m 575 -577 q 546 -582 514 -583 q 487 -585 453 -582 q 419 -580 387 -571 q 296 -545 255 -481 q 229 -438 226 -385 q 223 -326 254 -260 q 327 -105 601 7 q 660 31 723 52 q 786 72 850 90 q 914 109 978 125 q 1042 141 1102 156 q 1123 161 1144 166 q 1164 171 1184 176 q 1201 210 1221 248 q 1241 286 1262 324 q 1284 362 1306 398 q 1327 435 1346 466 q 1363 522 1368 568 q 1373 614 1371 652 q 1346 645 1318 642 q 1290 640 1266 638 q 1238 636 1210 637 q 1127 637 1064 654 q 1002 672 967 705 q 940 731 932 764 q 923 796 935 832 q 946 862 971 884 q 996 905 1029 916 q 1062 928 1101 931 q 1140 934 1180 928 q 1230 920 1274 902 q 1317 883 1349 854 q 1414 796 1428 712 q 1449 717 1470 722 q 1488 727 1509 731 q 1530 735 1547 739 q 1614 751 1671 754 q 1728 758 1780 754 q 1806 751 1828 746 q 1851 742 1870 737 q 1876 735 1892 730 q 1909 724 1923 716 q 1933 711 1950 701 q 1967 691 1982 678 q 1996 664 2003 647 q 2010 630 2001 611 q 1999 606 1995 602 q 1988 593 1978 590 q 1970 588 1959 590 q 1948 592 1934 603 q 1926 610 1917 620 q 1908 630 1897 641 q 1886 651 1873 658 q 1860 665 1849 670 q 1836 675 1822 680 q 1770 696 1709 700 q 1648 703 1598 698 q 1570 656 1534 600 q 1498 544 1459 480 q 1420 416 1380 346 q 1339 277 1301 207 q 1355 223 1398 238 q 1441 254 1468 271 q 1474 275 1481 274 q 1488 272 1492 266 q 1501 252 1487 243 q 1448 219 1385 198 q 1369 192 1351 187 q 1336 182 1317 176 q 1298 170 1278 165 q 1244 97 1206 31 q 1190 2 1172 -28 q 1153 -59 1134 -90 q 1114 -121 1094 -151 q 1074 -181 1054 -207 q 988 -293 924 -360 q 860 -427 794 -475 q 739 -516 684 -541 q 630 -566 575 -577 z m 1186 892 q 1160 898 1137 898 q 1114 899 1096 897 q 1075 894 1056 889 q 1026 880 1010 866 q 995 852 989 838 q 981 822 982 806 q 982 777 1006 758 q 1030 738 1059 726 q 1092 712 1136 703 q 1199 691 1264 691 q 1281 691 1299 692 q 1317 692 1332 694 q 1350 696 1366 698 q 1361 725 1354 745 q 1348 765 1341 779 q 1333 795 1325 806 q 1311 828 1292 843 q 1274 858 1256 868 q 1237 877 1218 883 q 1200 889 1186 892 z m 276 -354 q 270 -375 269 -396 q 268 -414 272 -435 q 276 -456 291 -473 q 304 -490 322 -500 q 339 -511 358 -518 q 378 -525 398 -528 q 419 -531 438 -531 q 483 -532 531 -522 q 607 -504 680 -454 q 754 -405 820 -340 q 886 -275 943 -202 q 1000 -129 1044 -62 q 1089 4 1120 56 q 1150 108 1162 131 q 1067 102 960 68 q 853 35 750 -4 q 647 -44 557 -89 q 467 -134 406 -185 q 345 -236 316 -278 q 287 -321 276 -354 z m 1435 603 q 1448 623 1460 641 q 1473 659 1485 676 q 1459 668 1434 664 q 1435 654 1436 638 q 1436 623 1435 603 z"},"V":{"x_min":0,"x_max":1012,"ha":1012,"o":"m 632 -186 q 620 -200 607 -214 q 596 -226 582 -240 q 569 -253 555 -264 q 535 -278 513 -285 q 491 -292 471 -282 q 454 -274 446 -261 q 439 -248 438 -234 q 437 -220 440 -206 q 443 -193 446 -184 q 468 -129 503 -58 q 538 12 576 86 q 613 161 647 234 q 681 307 699 367 q 723 447 724 496 q 725 544 715 571 q 705 598 690 607 q 674 616 667 618 q 639 624 616 619 q 592 614 575 606 q 555 596 537 582 q 516 565 498 544 q 481 523 466 500 q 452 477 440 454 q 428 431 419 410 q 411 393 402 363 q 392 333 387 296 q 386 293 386 289 q 384 264 375 253 q 366 242 356 238 q 345 234 331 237 q 320 241 312 248 q 305 254 301 265 q 297 276 302 293 q 307 322 322 354 q 338 387 355 416 q 374 449 397 483 q 445 556 501 601 q 570 657 643 655 q 726 653 759 590 q 792 530 774 414 q 759 316 706 180 q 674 97 630 4 q 586 -88 535 -180 q 529 -192 524 -205 q 518 -218 522 -223 q 527 -228 536 -222 q 546 -217 557 -207 q 569 -196 584 -180 q 597 -164 610 -145 q 623 -126 635 -108 q 647 -89 656 -74 q 666 -59 671 -50 q 725 44 773 126 q 821 208 856 270 q 897 342 932 403 q 986 496 1044 563 q 1102 630 1159 676 q 1110 688 1056 700 q 1001 712 941 720 q 924 722 908 722 q 893 721 880 719 q 865 717 852 714 q 812 705 751 681 q 728 672 714 674 q 701 677 693 685 q 684 693 680 707 q 677 718 681 728 q 683 736 692 744 q 700 753 717 758 q 737 763 763 766 q 784 768 813 768 q 842 769 876 764 q 894 762 914 758 q 934 755 951 753 q 971 749 991 747 q 1047 737 1098 726 q 1148 714 1194 702 q 1257 747 1314 767 q 1372 787 1417 787 q 1462 787 1492 768 q 1521 750 1529 717 q 1531 711 1532 704 q 1534 691 1529 672 q 1527 665 1516 650 q 1504 636 1473 628 q 1461 625 1447 624 q 1435 623 1418 623 q 1401 623 1381 626 q 1352 630 1319 637 q 1286 644 1249 653 q 1205 621 1160 575 q 1116 529 1072 469 q 1042 425 1009 373 q 980 328 943 269 q 906 210 864 142 q 842 106 815 64 q 788 22 758 -22 q 728 -65 696 -107 q 664 -149 632 -186 z m 1427 657 q 1450 656 1464 660 q 1478 665 1486 671 q 1495 677 1498 686 q 1500 695 1497 701 q 1494 707 1490 712 q 1486 716 1479 720 q 1447 737 1396 727 q 1346 717 1286 679 q 1328 669 1363 664 q 1398 658 1427 657 z"},"\"":{"x_min":0,"x_max":298,"ha":298,"o":"m 133 631 q 148 627 154 616 q 160 605 161 593 q 162 579 158 562 q 153 541 140 522 q 128 503 113 488 q 98 473 82 464 q 65 454 52 451 q 44 449 34 451 q 24 453 20 461 q 17 466 23 470 q 26 472 30 473 q 45 477 54 490 q 64 503 70 520 q 76 538 79 558 q 82 578 85 597 q 87 614 96 622 q 104 629 112 631 q 122 634 133 631 z m 238 589 q 253 585 258 574 q 264 563 265 551 q 266 537 262 520 q 257 499 245 480 q 233 461 218 446 q 203 431 186 422 q 170 412 156 409 q 148 407 138 409 q 128 411 125 419 q 122 425 128 429 q 131 431 134 432 q 150 436 160 449 q 169 462 175 480 q 181 497 184 517 q 187 537 190 556 q 192 573 200 580 q 209 587 217 589 q 227 592 238 589 z"},"7":{"x_min":0,"x_max":610,"ha":610,"o":"m 703 712 q 706 704 705 697 q 705 685 698 672 q 692 658 679 646 q 604 578 521 470 q 513 460 496 438 q 478 417 454 388 q 431 359 404 324 q 377 289 350 252 q 322 214 296 176 q 271 138 250 103 q 215 46 190 -2 q 166 -49 152 -94 q 151 -95 151 -96 q 151 -97 150 -98 q 148 -107 146 -120 q 144 -132 146 -144 q 147 -157 152 -170 q 158 -182 170 -191 q 176 -196 188 -201 q 195 -203 201 -207 q 206 -210 212 -214 q 218 -218 223 -223 q 230 -231 231 -243 q 232 -255 223 -267 l 218 -272 q 205 -285 186 -278 q 167 -271 153 -262 l 147 -258 q 145 -256 142 -254 q 139 -253 137 -251 q 86 -208 79 -141 q 74 -85 96 -18 q 116 45 157 117 q 168 137 181 158 q 194 178 208 200 q 236 243 274 294 q 313 346 351 394 q 389 443 420 482 q 452 520 467 538 q 516 597 557 638 q 598 678 633 705 q 538 716 466 718 q 393 721 340 718 q 288 714 254 706 q 220 697 201 686 q 194 682 190 678 q 186 673 182 668 q 179 664 175 660 q 171 657 165 656 q 159 654 154 655 q 149 656 145 658 q 141 660 137 663 q 129 670 128 678 q 127 685 128 692 q 129 700 133 707 q 151 741 223 753 q 254 758 296 760 q 338 762 392 760 q 467 758 543 750 q 619 743 677 735 q 683 733 691 728 q 699 724 703 712 z"},"S":{"x_min":0,"x_max":1120,"ha":1120,"o":"m 1263 717 q 1269 683 1252 652 q 1239 625 1205 602 q 1154 566 1054 542 q 1046 510 1039 472 q 1032 435 1024 389 q 1022 375 1020 360 q 1017 346 1014 332 l 1200 332 q 1208 332 1214 327 q 1221 322 1221 314 q 1222 306 1216 300 q 1211 293 1203 293 l 1202 293 q 1169 292 1134 292 q 1100 292 1071 292 q 1038 292 1007 293 q 992 217 972 143 q 953 69 924 3 q 896 -63 858 -119 q 820 -175 768 -216 q 717 -256 651 -278 q 585 -299 501 -297 q 473 -296 448 -292 q 422 -287 402 -282 q 378 -276 358 -268 q 281 -236 245 -173 q 226 -139 222 -103 q 217 -67 220 -38 q 223 -8 228 12 q 234 33 236 37 q 264 134 358 199 q 398 226 448 247 q 499 268 564 284 q 648 304 738 314 q 828 323 919 328 q 922 347 926 366 q 929 385 932 405 q 933 410 938 442 q 943 475 955 522 q 932 518 898 512 q 864 505 821 495 q 688 463 590 424 q 491 385 420 344 q 350 303 305 262 q 260 222 232 186 q 205 149 192 120 q 180 90 176 72 q 175 57 174 40 q 174 23 174 5 q 173 -25 164 -38 q 154 -51 142 -56 q 128 -61 110 -58 q 98 -55 89 -46 q 81 -38 74 -26 q 68 -13 68 10 q 70 32 76 58 q 81 81 92 110 q 104 140 126 173 q 128 177 144 200 q 159 223 192 256 q 225 289 278 328 q 331 366 408 402 q 434 414 463 426 q 488 437 520 448 q 551 460 583 471 q 646 491 706 506 q 767 522 818 534 q 870 546 909 554 q 948 561 968 564 q 974 584 982 603 q 989 622 999 641 q 1055 758 1142 782 q 1144 782 1152 784 q 1161 786 1174 786 q 1186 787 1200 784 q 1215 782 1229 774 q 1239 767 1249 754 q 1259 741 1263 717 z m 815 -9 q 873 111 911 287 q 753 274 644 246 q 536 218 465 179 q 394 140 354 90 q 315 41 296 -14 q 279 -62 281 -98 q 283 -133 293 -156 q 303 -180 315 -192 q 327 -205 331 -208 q 348 -222 374 -233 q 396 -242 428 -250 q 459 -258 502 -257 q 590 -257 664 -204 q 751 -142 815 -9 z m 1183 634 q 1199 645 1208 656 q 1217 667 1221 677 q 1225 687 1225 696 q 1225 704 1224 711 q 1221 726 1214 734 q 1208 741 1200 744 q 1191 748 1182 747 q 1154 746 1136 728 q 1117 710 1108 695 q 1099 678 1088 652 q 1077 625 1066 585 q 1144 608 1183 634 z"},"Z":{"x_min":0,"x_max":731,"ha":731,"o":"m 760 -133 q 719 -122 681 -118 q 643 -113 613 -111 q 578 -109 547 -110 q 505 -111 470 -114 q 436 -117 411 -120 q 386 -124 372 -127 q 357 -130 357 -130 l 356 -130 q 297 -139 261 -119 q 228 -101 217 -66 q 205 -21 238 48 q 250 72 261 88 q 272 104 273 106 q 336 193 420 277 q 512 368 623 450 q 802 583 1027 690 l 1006 699 q 956 720 914 733 q 871 746 840 754 q 808 761 788 764 q 768 766 764 767 q 689 775 638 764 q 586 754 554 737 q 516 718 494 690 q 480 674 466 653 q 451 632 434 604 q 420 582 408 576 q 396 570 385 571 q 373 572 362 581 q 354 589 350 599 q 347 607 348 618 q 349 630 360 644 q 380 667 406 689 q 428 708 458 729 q 489 750 527 767 q 586 795 664 801 q 739 807 826 794 q 913 781 1004 752 q 1026 745 1048 736 q 1069 728 1091 719 q 1147 744 1203 766 q 1207 768 1220 773 q 1233 778 1250 782 q 1267 787 1286 788 q 1306 788 1322 781 q 1357 766 1368 736 q 1375 715 1369 698 q 1363 680 1361 676 q 1353 662 1342 651 q 1332 641 1316 633 q 1301 625 1281 623 q 1245 618 1202 628 q 1159 638 1112 655 q 1068 630 1008 594 q 949 558 882 514 q 816 471 745 422 q 674 374 606 323 q 539 272 478 220 q 418 169 372 121 q 325 73 296 30 q 268 -13 264 -48 q 264 -51 264 -58 q 265 -64 267 -71 q 269 -78 274 -84 q 280 -91 289 -94 q 300 -98 315 -99 q 330 -100 350 -96 q 353 -96 368 -93 q 383 -90 408 -86 q 434 -83 469 -80 q 504 -77 546 -76 q 597 -75 645 -78 q 693 -82 740 -90 q 775 -95 808 -102 q 840 -110 871 -121 q 924 -136 964 -154 q 1003 -171 1030 -187 q 1062 -205 1084 -223 q 1098 -235 1101 -246 q 1104 -258 1102 -267 q 1100 -278 1093 -286 q 1083 -296 1072 -299 q 1062 -302 1048 -298 q 1035 -294 1019 -276 q 991 -246 966 -228 q 942 -209 930 -201 q 889 -176 846 -160 q 804 -144 760 -133 z m 1245 721 q 1234 716 1222 710 q 1209 704 1197 699 q 1183 693 1169 686 q 1194 676 1216 669 q 1238 662 1258 659 q 1287 654 1304 662 q 1320 669 1330 689 q 1338 707 1336 716 q 1333 724 1330 727 q 1322 733 1303 734 q 1284 735 1245 721 z"},"x":{"x_min":0,"x_max":213,"ha":213,"o":"m 196 426 q 219 441 243 458 q 267 474 291 483 q 311 491 330 492 q 347 493 366 486 q 384 480 399 459 q 412 440 412 429 q 413 418 407 413 q 401 408 397 413 q 393 418 389 426 q 384 437 380 442 q 377 446 376 447 q 371 452 365 456 q 360 459 352 462 q 344 464 333 462 q 310 459 284 444 q 259 430 237 413 q 211 394 186 371 q 166 352 146 331 q 125 310 104 287 q 99 247 99 208 q 99 168 104 129 q 106 110 110 92 q 114 77 120 61 q 126 45 136 34 q 141 28 144 23 q 146 18 147 13 q 148 8 143 4 q 136 -1 128 -2 q 120 -3 112 -2 q 100 -1 90 5 q 80 11 72 20 q 64 29 58 39 q 52 49 47 59 q 36 82 31 101 q 26 120 24 134 q 22 151 23 165 q 11 150 0 136 q -12 121 -23 106 q -40 82 -58 58 q -74 38 -93 14 q -112 -10 -130 -30 q -156 -59 -182 -83 q -205 -103 -233 -122 q -261 -141 -287 -147 q -304 -152 -317 -150 q -330 -148 -338 -144 q -347 -139 -352 -133 q -357 -127 -359 -124 q -363 -118 -365 -113 q -366 -110 -367 -108 q -370 -96 -366 -90 q -356 -77 -347 -81 q -338 -85 -328 -96 q -317 -108 -297 -111 q -277 -114 -249 -92 l -249 -93 q -229 -76 -202 -48 q -175 -19 -150 9 q -122 42 -92 78 q -62 116 -36 154 q -11 192 18 227 q 18 228 18 228 q 19 228 19 229 q 19 283 25 336 q 26 348 30 362 q 34 376 40 388 q 47 401 57 410 q 67 418 82 418 q 94 418 101 412 q 108 406 111 396 q 114 386 114 374 q 114 362 113 352 q 123 364 136 376 q 147 387 162 400 q 177 413 196 426 z"},"v":{"x_min":0,"x_max":308,"ha":308,"o":"m 97 79 q 123 106 142 136 q 160 165 171 189 q 184 217 193 245 q 199 269 198 288 q 197 308 190 337 q 182 368 192 388 q 201 409 224 405 q 231 403 236 398 q 240 392 242 385 q 244 378 244 370 q 244 363 244 358 q 243 348 245 338 q 247 330 251 320 q 255 310 264 303 q 273 295 288 292 q 303 289 317 288 q 334 287 351 288 q 356 289 360 288 q 364 288 364 285 q 364 280 360 273 q 355 266 343 262 q 336 261 329 260 q 323 259 314 258 q 306 258 297 259 q 280 261 268 265 q 257 269 250 274 q 242 279 237 287 q 236 275 232 261 q 229 249 224 232 q 218 215 210 196 q 208 193 202 178 q 195 164 183 144 q 171 123 154 99 q 136 75 114 51 q 97 32 78 18 q 60 5 40 0 q 28 -3 20 -1 q 12 1 4 5 q -18 16 -25 40 q -32 64 -33 85 q -34 96 -33 108 q -32 119 -30 128 q -28 139 -27 148 q -16 202 4 252 q 25 302 52 350 q 58 360 66 372 q 75 384 86 393 q 97 402 110 406 q 122 410 136 405 q 149 400 152 388 q 155 377 152 364 q 149 352 142 340 q 136 327 132 319 q 104 274 82 226 q 59 179 46 129 q 41 110 38 92 q 36 76 36 60 q 35 43 40 29 q 50 35 60 43 q 69 51 77 58 q 85 66 90 72 q 96 78 97 79 z"},"O":{"x_min":0,"x_max":1385,"ha":1385,"o":"m 803 -286 q 777 -287 752 -282 q 726 -278 706 -272 q 682 -266 660 -257 q 588 -225 552 -162 q 507 -88 515 24 q 521 105 555 198 q 492 198 422 201 q 309 207 232 184 q 198 172 176 148 q 155 125 142 98 q 128 71 120 46 q 112 21 105 6 q 95 -15 84 -22 q 73 -30 63 -30 q 52 -30 41 -23 q 31 -16 28 -6 q 24 4 24 15 q 24 26 28 38 q 32 49 37 60 q 49 86 71 113 q 83 129 101 145 q 116 159 137 174 q 158 189 186 203 q 208 213 241 221 q 269 228 310 232 q 351 237 408 236 q 437 235 478 234 q 520 234 570 236 q 577 254 585 272 q 593 290 601 309 q 655 422 722 508 q 788 593 866 651 q 938 704 1002 726 q 1065 747 1108 752 q 1110 752 1128 754 q 1145 755 1169 752 q 1193 749 1221 740 q 1249 731 1272 710 q 1328 660 1322 559 q 1319 530 1311 500 q 1304 474 1291 445 q 1278 416 1257 391 q 1278 388 1294 378 q 1311 369 1321 352 q 1350 305 1329 212 q 1322 180 1313 156 q 1304 133 1303 131 q 1271 56 1232 -6 q 1194 -68 1146 -118 q 1108 -158 1066 -189 q 1025 -220 980 -242 q 948 -257 920 -266 q 892 -274 869 -278 q 846 -283 829 -284 q 812 -286 803 -286 z m 1024 247 q 975 235 915 225 q 864 217 794 209 q 723 201 639 199 q 598 99 593 20 q 588 -58 608 -114 q 629 -170 670 -204 q 711 -238 763 -248 q 831 -258 891 -235 q 951 -212 1002 -170 q 1053 -127 1094 -71 q 1135 -15 1166 42 q 1197 99 1218 150 q 1238 201 1247 235 q 1258 277 1258 301 q 1259 325 1254 338 q 1248 351 1240 355 q 1233 359 1227 359 q 1207 338 1178 318 q 1153 301 1115 282 q 1077 262 1024 247 z m 1290 565 q 1292 603 1280 628 q 1268 654 1254 670 q 1237 688 1216 700 q 1186 714 1154 714 q 1121 713 1093 705 q 1060 696 1029 681 q 997 664 962 638 q 926 612 886 573 q 847 534 805 481 q 763 428 720 357 q 702 326 686 297 q 670 268 658 240 q 728 245 804 256 q 881 268 960 289 q 1033 309 1086 334 q 1138 360 1174 387 q 1210 414 1232 442 q 1255 469 1268 493 q 1280 517 1284 536 q 1289 554 1290 565 z"},"C":{"x_min":0,"x_max":1446,"ha":1446,"o":"m 901 -285 q 868 -286 840 -281 q 812 -276 792 -271 q 768 -265 749 -257 q 678 -223 641 -161 q 618 -123 608 -76 q 598 -30 603 25 q 607 87 628 158 q 650 229 688 310 q 772 486 887 597 q 872 605 848 618 q 824 630 793 644 q 762 659 726 673 q 689 687 650 698 q 571 722 503 725 l 486 725 q 478 725 470 724 q 462 724 455 723 q 414 720 386 702 q 358 683 338 660 q 319 637 306 614 q 293 591 281 579 q 265 562 252 558 q 240 555 232 558 q 221 562 214 572 q 200 592 209 614 q 218 636 235 654 q 254 675 284 695 q 294 702 308 710 q 319 717 336 724 q 353 732 374 740 q 385 742 396 746 q 406 748 418 751 q 430 754 442 756 q 488 761 540 756 q 593 751 653 734 q 713 720 782 690 q 852 661 927 633 q 948 650 972 666 q 992 680 1017 694 q 1042 709 1068 720 q 1105 734 1136 742 q 1167 750 1193 753 q 1196 754 1217 756 q 1238 758 1264 755 q 1313 749 1332 727 q 1350 705 1352 684 q 1353 682 1352 666 q 1351 651 1340 628 q 1330 608 1304 584 q 1278 560 1225 543 q 1196 533 1160 530 q 1124 526 1085 530 q 1053 533 1021 541 q 989 549 958 561 q 887 487 806 358 q 746 259 716 174 q 687 90 681 22 q 675 -47 690 -98 q 706 -150 736 -184 q 766 -219 808 -236 q 850 -252 898 -250 q 934 -248 966 -240 q 997 -233 1021 -225 q 1049 -215 1073 -203 q 1111 -183 1158 -148 q 1204 -114 1256 -60 q 1307 -5 1362 74 q 1417 152 1472 259 q 1483 273 1496 268 q 1503 265 1504 258 q 1506 252 1503 245 q 1452 147 1397 66 q 1342 -15 1283 -79 q 1235 -130 1186 -169 q 1136 -208 1085 -235 q 1019 -268 972 -276 q 924 -285 901 -285 z m 1272 603 q 1291 614 1301 627 q 1311 640 1315 651 q 1319 664 1319 678 q 1313 709 1276 717 q 1241 723 1199 714 q 1163 706 1114 682 q 1064 658 1005 606 q 1040 595 1075 588 q 1110 580 1145 578 q 1192 576 1222 584 q 1252 592 1272 603 z"},"W":{"x_min":0,"x_max":1304,"ha":1304,"o":"m 1746 709 q 1732 710 1718 710 q 1705 711 1695 710 q 1683 709 1673 708 q 1640 705 1608 697 q 1577 689 1544 680 q 1511 672 1476 664 q 1440 655 1399 651 q 1373 648 1351 648 q 1329 647 1309 648 q 1312 612 1310 566 q 1308 519 1298 460 q 1289 402 1271 332 q 1253 261 1224 177 q 1178 42 1121 -49 q 1064 -140 1005 -195 q 946 -250 890 -272 q 833 -294 787 -289 q 773 -288 763 -283 q 753 -278 746 -273 q 738 -267 732 -259 q 717 -239 719 -216 q 721 -194 724 -183 q 746 -128 781 -58 q 816 13 854 88 q 891 162 925 234 q 959 307 977 367 q 985 392 990 413 q 994 434 997 453 q 985 433 965 400 q 945 368 920 328 q 895 287 866 240 q 837 193 806 142 q 784 106 757 64 q 730 22 700 -22 q 670 -65 638 -107 q 606 -149 574 -186 q 562 -200 549 -214 q 538 -226 524 -240 q 511 -253 497 -264 q 478 -278 456 -285 q 434 -292 413 -282 q 396 -274 389 -261 q 382 -248 380 -234 q 379 -220 382 -206 q 385 -193 388 -184 q 410 -129 445 -58 q 480 12 518 86 q 555 161 589 234 q 623 307 641 367 q 665 447 666 496 q 667 544 657 571 q 647 598 632 607 q 616 616 609 618 q 582 623 558 618 q 534 613 516 604 q 495 593 476 579 q 456 562 438 542 q 421 521 407 498 q 393 476 382 453 q 370 430 361 410 q 354 393 344 363 q 334 333 329 296 q 328 289 327 283 q 326 278 325 272 q 324 267 323 264 q 317 250 308 244 q 300 239 292 237 q 282 235 273 237 q 262 241 254 248 q 247 254 243 265 q 239 276 244 293 q 249 319 264 352 q 280 384 297 413 q 316 447 340 483 q 389 558 443 601 q 512 657 585 655 q 668 653 701 590 q 734 530 716 414 q 708 365 692 306 q 675 248 649 180 q 617 97 572 4 q 528 -88 477 -180 q 471 -192 466 -205 q 460 -218 464 -223 q 469 -226 478 -222 q 487 -219 498 -210 q 502 -206 506 -201 q 511 -196 516 -191 q 521 -186 526 -180 q 539 -164 552 -145 q 566 -126 578 -108 q 590 -89 599 -74 q 608 -59 613 -50 q 668 44 716 126 q 763 208 798 270 q 839 342 874 403 q 889 429 902 450 q 916 472 936 499 q 941 505 949 513 q 957 521 968 528 q 978 534 990 538 q 1002 541 1016 537 q 1045 529 1052 503 q 1058 477 1056 449 q 1055 441 1054 432 q 1054 423 1052 414 q 1037 316 984 180 q 952 97 908 4 q 864 -88 813 -180 q 810 -186 806 -194 q 802 -203 800 -212 q 797 -220 797 -227 q 797 -234 801 -238 q 802 -238 802 -238 q 803 -239 804 -239 q 839 -230 879 -204 q 919 -177 960 -134 q 1000 -91 1038 -33 q 1077 25 1107 97 q 1140 174 1165 251 q 1190 328 1208 400 q 1225 473 1234 538 q 1244 604 1246 658 q 1219 665 1202 676 q 1186 688 1178 699 q 1168 712 1165 726 q 1162 741 1166 754 q 1169 767 1177 776 q 1185 786 1196 792 q 1207 798 1219 799 q 1222 799 1230 798 q 1237 798 1248 794 q 1258 789 1268 779 q 1279 769 1288 750 q 1291 742 1294 733 q 1296 725 1298 716 q 1301 706 1303 696 q 1363 690 1422 698 q 1482 707 1549 720 q 1578 726 1604 730 q 1629 733 1650 735 q 1658 736 1675 738 q 1692 739 1716 740 q 1739 740 1767 739 q 1795 738 1824 734 q 1869 729 1902 717 q 1936 705 1959 693 q 1985 679 2005 662 q 2019 649 2022 638 q 2026 626 2026 618 q 2025 608 2021 600 q 2012 589 2001 585 q 1991 581 1978 584 q 1964 586 1946 603 q 1922 626 1902 642 q 1881 658 1864 670 q 1853 679 1835 687 q 1820 694 1798 700 q 1775 706 1746 709 z m 1242 706 q 1245 706 1246 705 q 1245 715 1244 724 q 1244 732 1243 740 q 1238 765 1228 769 q 1218 773 1213 771 q 1203 768 1197 758 q 1191 749 1196 738 q 1199 730 1206 724 q 1214 718 1222 714 q 1231 710 1242 706 z"},"A":{"x_min":0,"x_max":1503,"ha":1503,"o":"m 2053 -169 q 2039 -167 2026 -167 q 2014 -167 2003 -168 q 1991 -169 1980 -170 q 1947 -173 1916 -181 q 1884 -189 1851 -198 q 1818 -206 1782 -214 q 1747 -223 1706 -227 q 1613 -236 1557 -220 q 1541 -245 1522 -258 q 1504 -271 1487 -277 q 1468 -284 1449 -285 q 1404 -290 1362 -262 q 1320 -233 1296 -173 q 1271 -113 1270 -22 q 1268 68 1304 186 q 1181 178 1074 186 q 956 101 850 46 q 742 -11 643 -39 q 614 -47 583 -52 q 557 -57 525 -61 q 493 -65 463 -64 q 273 -60 194 38 q 173 63 163 89 q 153 115 150 136 q 147 158 148 172 q 149 187 149 190 q 152 213 162 243 q 173 273 197 303 q 225 338 268 358 q 272 360 286 366 q 301 372 325 377 q 349 382 382 384 q 414 386 453 379 q 454 378 457 378 q 489 373 528 362 q 567 352 623 332 q 625 332 651 324 q 677 316 721 304 q 765 292 824 278 q 883 264 951 252 q 977 247 1002 244 q 1027 240 1052 236 q 1142 299 1224 366 q 1307 433 1377 495 q 1447 557 1500 608 q 1553 660 1585 692 q 1623 733 1652 752 q 1681 770 1701 777 q 1725 785 1742 782 q 1758 777 1762 764 q 1764 758 1764 752 q 1678 711 1588 576 q 1498 440 1407 227 q 1474 234 1532 253 q 1539 255 1546 252 q 1552 248 1554 241 q 1559 225 1543 220 q 1509 209 1472 202 q 1435 196 1393 191 q 1355 91 1347 4 q 1339 -82 1352 -144 q 1366 -205 1397 -236 q 1428 -267 1469 -256 q 1492 -251 1508 -239 q 1524 -227 1535 -214 q 1482 -193 1473 -152 q 1468 -131 1476 -114 q 1485 -97 1500 -88 q 1514 -79 1531 -80 q 1548 -80 1562 -93 q 1574 -104 1578 -117 q 1583 -130 1583 -142 q 1583 -154 1580 -164 q 1578 -173 1577 -177 q 1647 -189 1714 -181 q 1781 -173 1856 -158 q 1886 -152 1912 -148 q 1937 -145 1957 -143 q 1965 -142 1982 -140 q 2000 -139 2024 -138 q 2047 -138 2075 -139 q 2103 -140 2132 -144 q 2177 -149 2210 -161 q 2244 -173 2267 -185 q 2293 -199 2313 -216 q 2327 -229 2330 -240 q 2334 -252 2334 -260 q 2333 -270 2329 -278 q 2320 -289 2309 -293 q 2299 -297 2285 -294 q 2271 -292 2253 -275 q 2208 -232 2172 -208 q 2160 -199 2142 -191 q 2127 -184 2105 -178 q 2083 -172 2053 -169 z m 220 59 q 235 41 254 28 q 261 23 286 10 q 310 -3 346 -11 q 416 -28 495 -18 q 574 -8 656 21 q 739 50 824 95 q 908 140 990 194 q 890 205 805 224 q 720 243 649 264 q 578 284 522 302 q 466 320 425 329 q 380 339 346 336 q 312 333 288 324 q 263 315 248 303 q 232 291 224 282 q 201 254 193 227 q 185 200 183 186 l 183 185 q 182 179 182 173 q 182 168 182 160 q 182 152 184 143 q 190 95 220 59 z m 1130 227 q 1180 222 1226 220 q 1272 219 1315 220 q 1328 258 1345 299 q 1362 340 1385 384 q 1402 418 1418 448 q 1435 478 1451 505 q 1403 459 1346 407 q 1288 355 1223 301 q 1200 281 1176 263 q 1153 245 1130 227 z m 1532 -165 q 1539 -169 1548 -171 q 1552 -172 1556 -173 q 1558 -165 1558 -158 q 1559 -151 1559 -146 q 1558 -140 1557 -135 q 1553 -118 1544 -111 q 1540 -107 1535 -106 q 1528 -105 1521 -107 q 1514 -109 1509 -114 q 1504 -119 1502 -126 q 1500 -133 1503 -140 q 1507 -148 1515 -154 q 1523 -161 1532 -165 z"},"f":{"x_min":0,"x_max":139,"ha":139,"o":"m 405 752 q 416 744 422 729 q 427 716 427 695 q 427 674 415 643 q 400 611 374 585 q 351 562 314 542 q 278 523 222 518 q 218 512 214 505 q 210 498 205 489 q 200 480 194 469 q 200 469 206 469 q 212 469 218 468 q 221 468 228 467 q 234 466 241 464 q 248 461 254 456 q 260 451 261 442 q 262 421 246 414 q 230 407 212 409 q 201 410 188 410 q 176 411 163 411 q 146 380 128 343 q 111 306 94 266 q 88 252 75 222 q 62 191 47 158 q 10 62 -36 -24 q -56 -61 -79 -100 q -102 -139 -128 -175 q -155 -211 -184 -242 q -214 -274 -245 -297 q -263 -311 -284 -326 q -306 -342 -328 -353 q -335 -357 -353 -364 q -371 -372 -392 -376 q -413 -379 -432 -374 q -451 -369 -461 -348 q -466 -336 -464 -325 q -462 -316 -454 -307 q -445 -298 -423 -293 q -402 -288 -372 -288 q -343 -289 -308 -280 q -280 -272 -258 -256 q -237 -241 -229 -233 q -199 -203 -172 -162 q -145 -120 -116 -60 q -88 0 -58 81 q -27 162 10 270 l 9 270 q 22 306 36 338 q 49 371 62 399 q 45 393 30 384 q 15 374 3 360 q -7 347 -9 330 q -11 314 1 300 l 3 298 q 4 297 4 293 q 1 290 -4 293 q -27 304 -30 330 q -33 355 -20 377 q -12 392 1 404 q 14 415 28 425 q 57 444 89 453 q 96 466 101 476 q 106 486 111 494 q 115 503 120 509 q 99 509 78 510 q 60 510 38 510 q 16 511 -3 512 q -45 513 -76 502 q -107 492 -131 477 q -155 462 -174 447 q -192 432 -207 424 q -227 413 -239 414 q -251 416 -259 422 q -268 429 -272 442 q -279 467 -264 484 q -249 501 -228 512 q -203 524 -170 532 q -153 535 -127 538 q -104 540 -68 540 q -33 541 19 539 q 45 538 66 538 q 88 539 105 540 q 124 541 140 542 q 167 582 195 618 q 223 654 250 682 q 277 710 301 729 q 325 748 345 755 q 355 759 366 760 q 375 761 386 760 q 396 758 405 752 z m 355 609 q 376 634 384 651 q 392 668 394 679 q 396 691 391 699 q 388 701 380 702 q 371 703 354 691 q 338 679 312 648 q 285 617 246 556 q 272 559 292 568 q 313 577 327 586 q 343 597 355 609 z"},"Q":{"x_min":0,"x_max":1387,"ha":1387,"o":"m 684 -269 q 689 -269 694 -270 q 699 -271 703 -272 q 707 -272 711 -271 q 701 -269 693 -266 q 685 -264 680 -262 q 673 -259 668 -257 q 597 -225 559 -162 q 513 -86 521 24 q 523 64 533 107 q 543 150 559 198 q 497 198 425 201 q 313 207 235 184 q 201 172 180 148 q 159 125 146 98 q 133 71 126 46 q 118 21 111 6 q 101 -15 90 -22 q 79 -30 70 -30 q 59 -30 48 -23 q 28 -9 30 14 q 31 38 42 60 q 54 86 76 113 q 89 129 106 145 q 120 159 141 174 q 162 189 190 203 q 212 213 245 221 q 273 228 314 232 q 354 237 411 236 q 440 235 482 234 q 523 234 573 236 q 581 254 588 272 q 596 290 605 309 q 710 535 866 651 q 938 704 1001 726 q 1064 747 1108 752 q 1110 752 1127 754 q 1144 755 1168 752 q 1193 749 1220 740 q 1248 731 1271 710 q 1328 659 1323 559 q 1320 530 1312 500 q 1305 474 1292 445 q 1280 416 1259 391 q 1302 385 1324 352 q 1354 304 1333 212 q 1326 180 1318 156 q 1309 133 1308 131 q 1277 56 1238 -6 q 1199 -68 1153 -118 q 1077 -198 987 -242 q 960 -254 936 -263 q 939 -263 945 -262 q 951 -261 956 -260 l 970 -258 q 973 -258 988 -255 q 1004 -252 1028 -250 q 1051 -248 1080 -248 q 1108 -247 1136 -250 q 1165 -254 1192 -262 q 1218 -271 1238 -287 q 1268 -311 1274 -352 q 1275 -356 1275 -360 l 1275 -379 q 1273 -393 1266 -403 q 1260 -413 1248 -414 q 1237 -415 1231 -410 q 1225 -405 1223 -400 q 1219 -394 1220 -385 q 1218 -371 1214 -360 q 1210 -349 1205 -341 q 1200 -331 1193 -323 q 1178 -305 1150 -296 q 1122 -288 1090 -286 q 1059 -284 1028 -286 q 997 -288 978 -291 q 954 -294 930 -297 q 910 -299 886 -302 q 863 -305 844 -306 q 758 -312 688 -304 q 631 -296 586 -280 q 541 -263 504 -234 q 470 -209 460 -182 q 449 -155 449 -135 q 448 -113 454 -99 q 459 -85 460 -83 q 462 -78 468 -70 q 475 -62 484 -62 q 498 -62 501 -74 l 501 -80 q 501 -88 500 -93 q 498 -107 500 -132 q 502 -156 520 -182 q 537 -209 575 -233 q 613 -257 684 -269 z m 723 357 q 705 326 690 297 q 674 268 661 240 q 731 245 808 256 q 885 268 963 289 q 1072 319 1136 360 q 1201 401 1234 442 q 1268 482 1278 516 q 1289 549 1290 565 q 1291 603 1280 628 q 1268 654 1254 670 q 1237 688 1216 700 q 1186 714 1153 714 q 1120 713 1092 705 q 1059 696 1028 681 q 997 664 962 638 q 926 612 887 573 q 848 534 807 481 q 766 428 723 357 z m 643 199 q 603 99 598 20 q 594 -58 615 -114 q 636 -170 678 -204 q 719 -238 772 -248 q 840 -258 900 -235 q 959 -212 1010 -170 q 1060 -127 1100 -71 q 1141 -15 1172 42 q 1202 99 1222 150 q 1241 201 1250 235 q 1260 277 1260 301 q 1261 325 1256 338 q 1250 351 1242 355 q 1235 359 1229 359 q 1209 338 1180 318 q 1155 301 1118 282 q 1080 262 1027 247 q 979 235 919 225 q 868 217 798 209 q 727 201 643 199 z"},"w":{"x_min":0,"x_max":496,"ha":496,"o":"m 161 46 q 156 60 155 70 q 154 81 154 89 q 154 98 156 104 q 146 90 136 77 q 125 64 112 51 q 95 32 76 18 q 58 5 38 0 q 27 -3 18 -1 q 10 1 2 5 q -20 16 -27 40 q -34 64 -35 85 q -36 96 -35 108 q -34 119 -32 128 q -30 139 -29 148 q -17 202 4 252 q 24 302 50 350 q 56 360 65 372 q 74 384 84 393 q 95 402 108 406 q 120 410 134 405 q 147 400 150 388 q 153 377 150 364 q 147 352 141 340 q 135 327 130 319 q 102 274 80 226 q 58 179 44 129 q 39 110 36 92 q 34 76 34 60 q 33 43 38 29 q 48 35 58 43 q 68 51 76 58 q 83 66 88 72 q 94 78 95 79 q 127 113 147 148 q 167 184 178 210 q 202 285 241 350 q 247 360 256 372 q 264 384 274 393 q 285 402 298 406 q 310 410 324 405 q 337 400 340 388 q 343 377 340 364 q 338 352 332 340 q 325 327 321 319 q 293 274 270 226 q 248 179 234 129 q 229 110 226 92 q 224 76 224 60 q 223 43 228 29 q 238 35 248 43 q 258 51 266 58 q 273 66 278 72 q 284 78 285 79 q 311 106 330 136 q 348 165 359 189 q 372 217 381 245 q 388 269 386 288 q 385 308 378 337 q 371 368 380 388 q 390 409 413 405 q 420 403 424 398 q 429 392 431 385 q 433 378 433 370 q 433 363 433 358 q 432 348 434 338 q 436 330 440 320 q 443 310 452 303 q 461 295 476 292 q 491 290 505 291 q 522 292 539 295 q 544 296 548 296 q 552 295 552 292 q 551 287 547 280 q 543 273 531 269 q 524 268 517 267 q 511 266 502 266 q 494 265 485 266 q 468 268 456 271 q 445 274 438 278 q 430 282 426 287 q 425 275 421 261 q 418 249 412 232 q 407 215 399 196 q 397 193 390 178 q 384 164 372 144 q 360 123 342 99 q 325 75 303 51 q 285 32 266 18 q 248 5 228 0 q 217 -3 208 -1 q 200 1 192 5 q 180 11 173 22 q 166 33 161 46 z"},"-":{"x_min":0,"x_max":416,"ha":416,"o":"m 370 173 q 368 161 360 153 q 352 145 342 140 q 331 135 318 132 q 306 130 296 130 q 251 130 200 130 q 150 129 90 127 q 84 127 76 130 q 68 133 62 138 q 56 144 54 152 q 51 161 56 173 q 64 191 82 197 q 99 203 110 205 q 140 206 198 207 q 255 208 337 205 q 341 205 348 204 q 354 202 360 198 q 365 195 368 189 q 372 183 370 173 z"},"E":{"x_min":0,"x_max":1117,"ha":1117,"o":"m 601 -117 q 599 -127 598 -138 q 597 -147 598 -158 q 598 -169 601 -180 q 602 -183 606 -192 q 609 -201 618 -210 q 628 -220 644 -227 q 661 -234 687 -234 q 716 -234 758 -221 q 801 -208 862 -175 q 885 -162 912 -148 q 939 -135 969 -122 q 982 -116 994 -112 q 1007 -107 1019 -102 q 1040 -94 1060 -89 q 1081 -84 1098 -81 q 1104 -80 1110 -79 q 1115 -78 1120 -78 q 1184 -71 1228 -89 q 1249 -97 1265 -112 q 1281 -126 1279 -149 q 1277 -162 1270 -171 q 1264 -179 1252 -182 q 1239 -186 1218 -179 q 1203 -174 1182 -163 q 1160 -152 1134 -144 q 1108 -135 1076 -132 q 1045 -130 1010 -142 q 1003 -144 996 -147 q 990 -150 983 -153 q 948 -168 918 -184 q 887 -200 864 -214 q 841 -227 828 -236 q 814 -244 814 -244 l 813 -245 q 750 -280 704 -289 q 680 -293 660 -290 q 640 -288 624 -282 q 609 -276 598 -269 q 587 -262 580 -256 q 547 -226 535 -176 q 523 -124 537 -51 q 549 15 582 94 q 596 130 614 169 q 633 208 656 251 q 641 245 632 242 q 623 238 623 237 q 621 237 620 236 q 618 236 616 236 q 611 236 607 239 q 603 242 601 247 q 598 254 600 260 q 603 267 610 269 q 611 269 630 277 q 650 285 682 297 q 695 320 709 344 q 723 367 738 392 q 755 448 760 494 q 765 540 763 577 q 738 570 710 568 q 682 565 658 564 q 630 563 602 563 q 518 563 456 580 q 394 598 359 631 q 331 657 323 690 q 315 722 327 757 q 336 788 363 809 q 385 829 421 842 q 489 865 572 853 q 621 846 664 827 q 708 808 741 779 q 809 720 821 630 q 845 633 871 638 q 897 644 918 649 q 943 655 967 662 q 993 670 1022 680 q 1050 689 1073 698 q 1100 709 1127 720 q 1226 760 1306 780 q 1386 801 1457 805 q 1512 808 1549 801 q 1555 800 1572 797 q 1590 794 1605 789 q 1616 785 1634 778 q 1652 770 1668 758 q 1684 747 1694 731 q 1703 715 1697 695 q 1695 689 1692 685 q 1690 681 1686 677 q 1681 673 1676 671 q 1668 668 1658 669 q 1647 670 1632 678 q 1623 683 1612 692 q 1602 700 1589 711 q 1560 730 1516 737 q 1473 744 1426 743 q 1380 742 1335 734 q 1290 727 1257 717 q 1224 707 1182 694 q 1140 681 1102 669 q 1064 657 1034 648 q 1005 638 998 636 q 957 576 908 502 q 860 427 812 345 q 822 349 827 350 q 898 375 954 373 q 1014 371 1045 343 q 1080 311 1067 258 q 1063 242 1046 245 q 1034 248 1034 260 q 1029 278 1018 289 q 1006 300 995 307 q 981 314 966 318 q 931 326 882 318 q 833 309 782 295 q 750 240 721 184 q 692 129 668 76 q 644 23 626 -26 q 609 -75 601 -117 z m 518 823 q 502 823 490 822 q 477 820 468 818 q 457 816 448 814 q 417 805 402 792 q 387 778 380 764 q 372 748 373 732 q 373 703 397 683 q 421 663 450 651 q 484 637 528 628 q 585 617 643 616 q 701 616 758 622 q 753 649 746 670 q 739 690 732 704 q 724 720 716 731 q 702 753 684 768 q 666 783 647 793 q 628 803 610 809 q 592 815 577 818 q 566 820 556 821 q 545 822 537 823 z m 827 529 q 840 548 852 566 q 865 584 877 601 q 863 598 850 595 q 838 592 825 589 q 826 579 827 564 q 828 549 827 529 z"},"s":{"x_min":0,"x_max":206,"ha":206,"o":"m 41 -69 q 28 -77 16 -80 q 4 -84 -7 -84 q -19 -85 -30 -82 q -51 -77 -62 -66 q -73 -54 -78 -40 q -82 -29 -82 -18 q -83 -7 -82 1 q -81 11 -78 20 q -75 31 -67 44 q -59 56 -42 67 q -18 83 22 90 q 24 119 22 148 q 21 164 20 179 q 17 207 14 223 q 12 233 11 241 q 5 286 14 325 q 24 364 40 388 q 51 406 66 418 q 78 429 96 436 q 113 442 134 436 q 146 433 159 422 q 172 410 172 384 q 172 376 170 362 q 168 347 158 330 q 152 319 144 311 q 136 303 128 298 q 119 293 113 294 q 107 294 105 298 q 99 305 103 313 q 105 317 109 320 q 119 328 127 339 q 135 350 138 364 q 143 381 142 390 q 140 398 135 402 q 131 405 128 406 q 125 406 122 406 q 118 405 115 404 q 101 395 94 376 q 88 357 86 334 q 85 311 87 288 q 89 265 92 248 q 95 232 100 198 q 105 165 107 126 q 153 146 174 158 q 195 171 208 179 q 214 183 216 180 q 218 178 218 173 q 218 168 217 160 q 200 148 182 136 q 166 125 147 114 q 128 102 108 92 q 107 69 104 47 q 101 25 95 7 q 90 -7 83 -21 q 76 -33 66 -46 q 56 -59 41 -69 z m -43 -21 q -42 -24 -40 -27 q -38 -29 -36 -32 q -33 -35 -29 -36 q -21 -38 -15 -32 q -9 -27 -4 -21 q 1 -13 5 0 q 8 11 10 21 q 12 31 14 39 q 16 49 17 57 q -5 52 -18 42 q -30 33 -36 24 q -44 13 -46 1 q -46 -4 -46 -10 q -45 -16 -43 -21 z"},">":{"x_min":0,"x_max":337,"ha":337,"o":"m -250 542 q -196 537 -142 534 q -88 530 -39 528 q -13 526 11 526 q 35 525 57 523 q 184 516 251 455 q 310 401 310 321 q 310 282 296 243 q 281 204 255 172 q 241 156 226 143 q 212 130 195 120 q 158 100 121 97 l 108 97 q 52 97 27 130 q 13 148 8 170 q 4 191 5 210 q 6 230 9 244 q 12 257 12 258 q 14 265 20 268 q 26 272 33 270 q 49 265 44 249 q 42 242 40 230 q 38 218 38 204 q 38 190 42 176 q 45 162 53 152 q 72 128 119 131 q 148 133 176 149 q 205 165 228 194 q 251 222 264 255 q 276 288 276 321 q 276 387 228 430 q 170 482 55 489 q 33 491 10 492 q -14 493 -40 494 q -79 496 -122 498 q -166 500 -210 504 q -253 507 -296 512 q -339 517 -378 525 q -386 526 -396 528 q -406 530 -415 532 q -426 534 -437 536 l -436 536 q -460 542 -480 549 q -501 556 -517 563 q -535 570 -550 578 q -581 593 -602 611 q -620 626 -631 646 q -642 666 -630 689 q -623 701 -613 706 q -605 711 -592 709 q -579 707 -562 693 q -550 682 -535 664 q -520 645 -499 624 q -478 604 -450 586 q -423 569 -386 561 q -364 557 -341 553 q -321 550 -297 547 q -273 544 -250 542 z"},"l":{"x_min":0,"x_max":243,"ha":243,"o":"m 217 147 q 191 111 164 81 q 140 55 110 32 q 81 9 50 3 q 36 0 18 1 q -1 2 -18 17 q -30 27 -33 48 q -36 68 -35 89 q -34 114 -28 141 q -21 172 -11 204 q -1 237 10 267 q 20 297 30 322 q 41 347 49 365 q 80 438 125 509 q 104 509 83 510 q 65 510 43 510 q 21 511 2 512 q -40 513 -71 502 q -102 492 -126 477 q -150 462 -168 447 q -187 432 -202 424 q -222 413 -234 414 q -246 416 -254 422 q -263 429 -267 442 q -274 467 -259 484 q -244 501 -223 512 q -198 524 -165 532 q -148 535 -122 538 q -99 540 -64 540 q -28 541 25 539 q 50 538 72 538 q 93 539 110 540 q 129 541 145 542 q 172 582 200 618 q 228 654 255 682 q 282 710 306 729 q 330 748 350 755 q 360 759 371 760 q 380 761 390 760 q 401 758 410 752 q 421 744 427 729 q 432 716 432 695 q 432 674 420 643 q 405 611 379 585 q 356 562 320 542 q 283 523 228 518 q 214 494 201 469 q 189 448 176 424 q 162 400 151 379 q 117 314 91 252 q 80 226 70 198 q 59 170 50 144 q 42 117 38 92 q 33 68 34 49 q 35 43 38 36 q 42 29 53 33 q 76 40 102 64 q 127 88 150 114 q 176 145 202 182 q 216 202 229 222 q 242 241 253 256 q 256 260 259 263 q 264 268 268 267 q 272 265 276 260 q 279 255 274 245 q 266 229 256 212 q 248 198 238 180 q 227 163 217 147 z m 360 609 q 382 634 390 651 q 398 668 400 679 q 402 691 396 699 q 393 701 384 702 q 376 703 360 691 q 343 679 316 648 q 290 617 251 556 q 277 559 298 568 q 318 577 332 586 q 348 597 360 609 z"},"8":{"x_min":0,"x_max":670,"ha":670,"o":"m 573 351 q 531 306 469 283 q 454 277 440 273 q 425 269 412 267 q 430 261 453 250 q 476 239 499 222 q 519 207 538 186 q 558 164 570 134 q 583 104 586 66 q 590 28 578 -20 q 553 -119 490 -185 q 440 -238 369 -264 q 326 -281 290 -285 q 254 -289 234 -289 l 222 -289 q 168 -290 112 -278 q 56 -266 11 -234 q -34 -203 -60 -150 q -87 -96 -81 -13 q -78 26 -64 60 q -61 69 -48 96 q -36 124 -8 158 q 19 191 65 224 q 111 257 181 275 q 189 277 196 278 q 204 280 212 282 q 183 293 158 311 q 133 329 115 355 q 97 381 88 416 q 80 452 83 499 q 84 532 97 562 q 99 569 110 593 q 121 617 145 646 q 169 674 208 702 q 248 730 308 746 q 352 760 401 758 q 432 757 452 753 q 472 749 476 748 q 479 747 489 744 q 499 742 514 736 q 528 731 546 722 q 563 714 581 701 q 598 688 614 669 q 631 650 642 624 q 653 599 656 566 q 659 534 649 493 q 626 405 573 351 z m 477 -13 q 492 36 491 74 q 490 111 479 138 q 468 166 451 184 q 434 203 417 215 q 400 227 385 232 q 370 238 365 240 l 364 240 q 354 243 342 245 q 331 247 316 248 q 302 249 285 250 q 281 251 278 250 q 274 250 269 250 q 252 250 220 244 q 188 239 153 221 q 118 203 84 169 q 51 135 30 78 q 8 20 10 -27 q 11 -74 26 -110 q 33 -128 44 -146 q 61 -172 82 -191 q 102 -210 122 -223 q 147 -236 170 -243 q 198 -248 240 -244 q 281 -241 326 -218 q 370 -195 410 -146 q 451 -98 477 -13 z m 298 301 q 322 296 358 300 q 393 303 432 323 q 470 343 505 384 q 540 426 562 499 q 575 541 574 573 q 573 605 564 629 q 555 653 540 669 q 525 685 510 695 q 495 705 482 710 q 470 715 465 716 q 457 718 446 720 q 437 722 424 723 q 411 724 397 725 q 389 725 380 725 q 372 725 362 724 q 323 718 288 699 q 258 682 226 648 q 195 615 176 556 q 159 504 165 462 q 171 420 190 388 q 209 357 236 336 q 264 314 290 304 q 296 302 298 301 z"},"\\":{"x_min":0,"x_max":502,"ha":502,"o":"m 41 758 q 52 760 60 755 q 68 750 74 742 q 79 735 82 726 q 85 718 87 713 q 104 630 149 531 q 194 432 251 331 l 312 228 q 349 161 382 94 q 414 27 438 -36 q 461 -98 474 -154 q 486 -209 482 -253 q 479 -264 472 -274 q 465 -283 448 -284 q 439 -284 433 -278 q 427 -271 423 -262 q 419 -252 416 -241 q 414 -230 412 -222 q 403 -181 387 -136 q 371 -90 350 -42 q 328 7 302 57 q 276 107 248 157 l 188 260 q 158 314 130 368 q 103 423 81 475 q 59 527 44 576 q 28 624 21 667 q 19 685 18 701 q 16 717 17 729 q 18 741 24 748 q 29 756 41 758 z"},"e":{"x_min":0,"x_max":351,"ha":351,"o":"m 53 20 q 69 10 90 12 q 111 14 130 20 q 152 27 174 39 q 189 48 200 58 q 212 67 220 74 q 237 91 253 110 q 269 129 282 145 q 296 163 309 182 q 323 202 336 222 q 349 241 360 256 q 363 260 366 263 q 371 268 375 267 q 380 265 383 260 q 386 255 381 245 q 373 229 363 212 q 355 198 345 180 q 335 163 324 147 q 320 141 315 134 q 306 122 291 104 q 284 95 268 77 q 251 59 226 39 q 201 19 170 2 q 138 -16 101 -22 q 63 -28 38 -24 q 13 -20 -2 -12 q -18 -4 -24 4 q -31 11 -31 11 q -45 31 -48 65 q -50 99 -36 151 q -26 189 -11 220 q 4 252 18 274 q 35 300 52 319 q 70 340 88 354 q 106 368 120 376 q 137 386 153 391 q 164 395 176 396 q 187 397 200 395 q 213 393 227 386 q 232 382 238 378 q 243 374 248 368 q 254 362 259 354 q 265 341 268 323 q 270 308 270 288 q 269 267 260 242 l 260 241 q 251 217 234 192 q 216 168 189 148 q 165 130 141 118 q 117 105 96 98 q 75 90 58 86 q 41 81 30 80 q 28 62 32 46 q 36 29 53 20 z m 223 245 q 234 271 236 288 q 238 304 235 314 q 231 325 224 331 q 201 341 169 314 q 137 286 100 236 q 86 216 74 195 q 63 177 52 154 q 42 132 36 109 q 65 117 94 131 q 123 145 148 163 q 174 181 194 202 q 213 222 223 245 z"},"b":{"x_min":0,"x_max":344,"ha":344,"o":"m 88 9 q 108 16 125 32 q 142 47 156 64 q 172 83 186 105 q 203 131 213 156 q 223 181 228 201 q 233 224 235 244 q 237 270 232 289 q 227 308 216 335 q 203 364 208 386 q 214 408 238 407 q 245 407 250 402 q 256 398 259 391 q 262 384 264 377 q 265 370 266 365 q 266 355 270 345 q 273 337 278 328 q 284 320 294 315 q 303 307 316 303 q 327 299 344 299 q 362 299 386 307 q 393 310 401 313 q 407 315 414 318 q 421 320 426 322 q 434 324 440 326 q 446 327 447 325 q 450 320 445 313 q 442 309 436 304 q 429 298 418 293 q 404 290 390 287 q 378 285 363 282 q 348 280 334 279 q 317 277 306 280 q 294 282 286 285 q 277 289 271 294 q 272 268 268 240 q 265 216 257 185 q 249 154 232 122 q 214 85 190 54 q 170 28 140 4 q 109 -19 70 -23 q 53 -24 42 -20 q 31 -15 29 -14 q 10 -5 0 12 q -11 30 -16 52 q -21 74 -21 100 q -21 125 -18 150 q -11 208 10 277 q 27 334 54 394 q 82 453 117 509 q 96 509 75 510 q 57 510 36 510 q 14 511 -5 512 q -47 513 -78 502 q -110 492 -134 477 q -158 462 -176 447 q -194 432 -209 424 q -229 413 -241 414 q -253 416 -261 422 q -270 429 -274 442 q -282 467 -267 484 q -252 501 -231 512 q -206 524 -173 532 q -156 535 -130 538 q -107 540 -72 540 q -36 541 17 539 q 42 538 64 538 q 86 539 103 540 q 122 541 138 542 q 165 582 193 618 q 221 654 248 682 q 275 710 299 729 q 323 748 343 755 q 353 759 364 760 q 373 761 384 760 q 394 758 403 752 q 414 744 420 729 q 425 716 425 695 q 425 674 412 643 q 397 611 371 585 q 348 562 312 542 q 275 523 220 518 q 206 494 190 466 q 173 437 156 403 q 113 313 85 236 q 73 203 63 170 q 53 136 48 106 q 42 76 43 52 q 44 28 54 15 q 57 12 62 9 q 66 7 72 6 q 79 5 88 9 z m 243 556 q 269 559 290 568 q 310 577 324 586 q 340 597 352 609 q 374 634 382 651 q 390 668 392 679 q 394 691 388 699 q 385 701 376 702 q 368 703 352 691 q 335 679 308 648 q 282 617 243 556 z"},"m":{"x_min":0,"x_max":536,"ha":536,"o":"m 38 37 q 40 29 40 20 q 39 10 29 6 q 16 -1 0 6 q -14 13 -19 23 q -34 50 -34 84 q -34 119 -28 148 q -16 202 4 252 q 24 302 51 350 q 57 360 66 372 q 74 384 85 393 q 96 402 108 406 q 121 410 135 405 q 148 400 151 388 q 154 377 151 364 q 148 352 142 340 q 136 327 131 319 q 120 300 109 280 q 98 261 88 241 q 95 251 102 260 q 110 270 116 278 q 123 287 130 295 q 157 327 186 353 q 215 379 248 386 q 258 388 270 386 q 281 384 292 376 q 301 368 304 359 q 306 350 306 340 q 305 330 302 320 q 299 311 296 304 q 292 293 286 282 q 281 271 274 258 q 266 245 255 230 q 269 250 282 267 q 296 284 307 297 q 319 312 331 325 q 352 348 374 364 q 397 381 423 386 q 433 388 444 386 q 456 384 466 376 q 484 361 482 339 q 479 317 472 302 q 468 294 463 286 q 458 277 453 268 q 443 253 426 224 q 410 196 394 164 q 379 132 368 100 q 357 69 359 49 q 360 42 364 35 q 368 28 381 34 q 392 40 406 54 q 420 68 432 82 q 446 99 460 119 q 475 141 489 164 q 503 187 515 207 q 527 227 536 242 q 546 258 553 266 q 554 267 556 267 q 561 267 566 265 q 570 264 569 257 q 569 252 553 218 q 533 175 508 135 q 487 101 458 66 q 430 32 398 12 q 397 11 388 7 q 379 3 366 1 q 353 -1 338 2 q 322 5 307 17 q 295 27 291 46 q 287 65 288 90 q 290 115 296 142 q 303 170 314 196 q 321 213 331 234 q 341 255 350 272 q 361 292 372 312 q 366 306 348 288 q 330 269 307 243 q 284 217 260 186 q 236 154 217 122 q 214 117 210 109 q 206 102 201 92 q 196 83 191 72 q 186 61 179 53 q 173 46 164 42 q 154 37 140 40 q 123 44 120 62 q 116 81 121 106 q 126 132 136 161 q 147 190 158 216 q 170 242 180 262 q 190 281 193 287 q 198 296 202 304 q 206 311 209 316 q 213 322 216 328 q 209 322 188 301 q 166 280 140 250 q 113 219 86 182 q 58 144 39 104 q 38 93 37 82 q 36 72 36 60 q 36 48 38 37 z"},",":{"x_min":0,"x_max":198,"ha":198,"o":"m 136 59 q 153 54 159 42 q 165 31 166 17 q 167 1 163 -17 q 157 -40 144 -60 q 131 -81 114 -97 q 98 -113 80 -124 q 62 -135 47 -138 q 39 -140 28 -138 q 17 -135 13 -126 q 10 -120 16 -116 q 19 -114 23 -113 q 40 -108 50 -94 q 61 -80 67 -61 q 73 -42 77 -20 q 81 2 84 22 q 86 40 95 48 q 104 57 113 59 q 124 62 136 59 z"},"n":{"x_min":0,"x_max":404,"ha":404,"o":"m 39 37 q 41 29 40 20 q 40 10 30 6 q 17 -1 1 6 q -14 13 -19 23 q -34 50 -34 84 q -33 119 -27 148 q -16 202 4 252 q 25 302 52 350 q 58 360 66 372 q 75 384 86 393 q 96 402 108 406 q 121 410 135 405 q 148 400 151 388 q 154 377 152 364 q 149 352 142 340 q 136 327 132 319 q 113 289 96 258 q 80 226 67 194 q 76 207 86 220 q 96 233 107 247 q 126 270 149 293 q 172 316 196 335 q 220 354 244 368 q 268 381 291 386 q 301 388 312 386 q 324 384 335 376 q 352 361 350 339 q 347 317 340 302 q 336 294 331 286 q 326 277 321 268 q 311 253 294 224 q 278 196 262 164 q 247 132 236 100 q 226 69 228 49 q 228 42 232 35 q 236 28 249 34 q 260 40 274 54 q 288 68 300 82 q 314 99 328 119 q 343 141 357 164 q 371 187 383 207 q 395 227 405 242 q 415 258 422 266 q 423 267 425 267 q 429 267 434 265 q 439 263 437 257 q 437 252 421 218 q 401 175 376 135 q 355 101 327 66 q 299 32 267 12 q 265 11 256 7 q 248 3 234 1 q 221 -1 206 2 q 190 5 175 17 q 163 27 159 46 q 155 65 156 90 q 158 115 164 142 q 171 170 182 196 q 189 213 200 234 q 210 255 219 272 q 230 292 241 312 q 232 309 204 288 q 177 267 144 234 q 112 201 82 158 q 51 114 36 66 q 36 59 37 54 q 37 43 39 37 z"},"h":{"x_min":0,"x_max":407,"ha":407,"o":"m 32 44 q 32 39 33 35 q 33 31 34 28 q 34 25 34 23 q 35 16 32 10 q 30 4 22 2 q 17 0 13 0 q 9 0 4 0 q -2 1 -7 5 q -19 13 -25 24 q -33 40 -34 61 q -36 82 -34 100 q -32 121 -28 143 q -21 174 -11 206 q -1 238 10 268 q 20 297 30 322 q 41 347 49 365 q 65 402 84 438 q 103 474 124 509 q 103 509 82 510 q 64 510 42 510 q 21 511 2 512 q -40 513 -72 502 q -103 492 -127 477 q -151 462 -169 447 q -187 432 -202 424 q -222 413 -234 414 q -246 416 -254 422 q -263 429 -267 442 q -275 467 -260 484 q -245 501 -224 512 q -199 524 -166 532 q -149 535 -123 538 q -100 540 -64 540 q -29 541 24 539 q 50 538 72 538 q 93 539 110 540 q 129 541 145 542 q 172 582 200 618 q 228 654 255 682 q 282 710 306 729 q 330 748 350 755 q 360 759 371 760 q 380 761 390 760 q 401 758 410 752 q 421 744 427 729 q 432 716 432 695 q 432 674 419 643 q 404 611 378 585 q 355 562 318 542 q 282 523 227 518 q 213 494 200 469 q 189 448 176 424 q 162 400 151 379 q 137 351 122 320 q 109 293 94 259 q 80 225 67 190 q 76 203 86 218 q 97 233 110 247 q 129 270 152 293 q 174 316 198 335 q 222 354 246 368 q 270 381 293 386 q 304 388 316 386 q 327 384 337 376 q 354 361 352 339 q 350 317 343 302 q 338 294 334 286 q 329 277 323 268 q 314 253 298 224 q 281 196 266 164 q 250 132 239 100 q 228 69 230 49 q 231 42 235 35 q 239 28 251 34 q 263 40 276 54 q 290 68 302 82 q 316 99 330 119 q 346 141 360 164 q 374 187 386 207 q 398 227 408 242 q 417 258 424 266 q 425 267 427 267 q 432 267 437 265 q 441 263 440 257 q 439 255 436 244 q 432 234 424 218 q 404 175 379 135 q 358 101 330 66 q 301 32 269 12 q 267 11 258 7 q 250 3 237 1 q 224 -1 208 2 q 193 5 178 17 q 166 27 162 46 q 158 65 160 90 q 161 115 168 142 q 174 170 185 196 q 192 213 202 234 q 212 255 221 272 q 232 292 243 312 q 233 308 204 286 q 174 263 140 226 q 106 190 75 143 q 44 96 32 44 z m 395 699 q 392 701 384 702 q 375 703 358 691 q 342 679 316 648 q 289 617 250 556 q 276 559 296 568 q 317 577 331 586 q 347 597 359 609 q 381 634 389 651 q 397 668 399 679 q 401 691 395 699 z"},"z":{"x_min":0,"x_max":291,"ha":291,"o":"m -417 -334 q -364 -334 -318 -320 q -271 -307 -230 -284 q -190 -262 -156 -232 q -121 -203 -92 -169 q -135 -166 -184 -165 q -234 -164 -294 -166 q -346 -168 -386 -173 q -425 -178 -454 -184 q -483 -191 -502 -200 q -522 -208 -534 -216 q -563 -235 -566 -259 q -568 -265 -567 -270 q -567 -281 -558 -291 q -545 -308 -521 -316 q -497 -325 -474 -329 q -447 -333 -417 -334 z m 681 -84 q 686 -92 687 -102 q 688 -110 684 -122 q 679 -133 665 -146 q 645 -163 617 -178 q 593 -191 558 -202 q 523 -214 476 -219 q 428 -223 368 -221 q 307 -219 238 -211 q 196 -206 150 -200 q 104 -194 66 -188 q 21 -181 -21 -174 q -36 -191 -52 -208 q -68 -225 -88 -242 q -111 -262 -140 -281 q -165 -298 -199 -316 q -233 -334 -275 -347 q -306 -357 -341 -362 q -371 -367 -411 -367 q -451 -367 -494 -356 q -532 -348 -552 -333 q -573 -318 -584 -304 q -596 -287 -599 -268 q -601 -243 -589 -220 q -578 -200 -551 -179 q -524 -158 -467 -143 q -419 -131 -357 -124 q -304 -119 -230 -118 q -156 -117 -62 -131 q -50 -113 -38 -93 q -27 -73 -19 -56 q -9 -36 0 -16 q 10 8 22 44 q 34 79 44 114 q 54 148 60 178 q 67 207 67 219 q 66 239 84 263 q 102 287 123 307 q 148 331 179 354 q 166 349 152 349 q 140 348 125 352 q 110 355 96 366 q 88 348 80 330 q 72 314 64 296 q 55 279 46 262 l 45 261 q 43 259 43 258 q 41 254 39 251 q 37 248 35 245 q 32 240 24 226 q 17 212 8 196 q -1 181 -8 168 q -16 154 -17 151 l -19 149 q -21 147 -21 145 q -23 144 -26 143 q -29 142 -35 144 q -40 144 -43 147 q -48 149 -46 155 q -46 156 -37 172 q -28 189 -16 212 q -4 234 9 258 q 22 283 31 301 q 34 308 40 321 q 46 334 52 348 q 58 361 64 374 q 70 386 74 394 q 72 395 69 412 q 66 430 75 457 q 84 484 94 490 q 103 495 112 494 q 120 493 126 482 q 132 472 123 438 q 121 431 119 424 q 117 418 115 410 q 113 403 110 397 q 130 385 150 384 q 169 384 186 388 q 205 392 223 402 q 228 404 232 405 q 236 406 240 406 q 245 406 250 403 q 262 396 263 387 q 265 382 265 370 q 265 357 262 340 q 259 324 252 306 q 245 289 233 274 q 221 263 208 253 q 197 245 182 238 q 167 230 150 227 q 150 223 146 204 q 143 184 138 159 q 132 134 126 108 q 120 81 115 63 l 115 51 q 116 43 120 36 q 124 30 136 36 q 148 41 162 55 q 175 69 187 83 q 201 100 215 119 q 232 141 246 164 q 259 187 270 207 q 294 248 309 266 q 310 266 312 267 q 314 267 316 268 q 317 268 321 266 q 325 265 325 258 q 324 254 308 218 q 289 175 264 135 q 243 101 214 67 q 186 33 154 13 q 153 13 148 10 q 142 8 134 6 q 126 3 116 2 q 105 1 94 3 q 83 -24 66 -54 q 48 -84 23 -118 q 15 -127 10 -134 q 7 -138 6 -140 q 61 -151 119 -162 q 169 -171 228 -180 q 288 -188 344 -192 q 389 -196 422 -190 q 456 -185 479 -177 q 505 -167 524 -154 q 541 -142 561 -126 q 581 -109 605 -87 q 623 -70 637 -67 q 651 -64 661 -68 q 672 -72 681 -84 z"},"B":{"x_min":0,"x_max":1487,"ha":1487,"o":"m 1179 719 q 1180 711 1179 700 q 1178 691 1174 680 q 1170 668 1161 655 q 1139 623 1106 614 q 1073 605 1032 610 q 1012 572 993 526 q 974 481 956 431 q 939 381 924 328 q 909 274 899 221 q 915 256 940 306 q 966 356 1000 412 q 1034 467 1075 523 q 1116 579 1163 626 l 1192 655 q 1312 766 1427 754 q 1456 751 1477 743 q 1498 735 1512 724 q 1526 713 1535 700 q 1544 688 1549 676 q 1569 628 1551 564 q 1534 504 1488 445 q 1419 359 1320 317 q 1271 295 1216 287 q 1253 271 1281 254 q 1331 223 1362 180 q 1423 100 1403 -12 q 1402 -15 1397 -37 q 1392 -59 1378 -91 q 1364 -122 1336 -162 q 1309 -201 1262 -235 q 1163 -307 1014 -307 q 986 -307 957 -304 q 928 -302 896 -297 q 894 -296 870 -292 q 846 -287 813 -273 q 721 -233 679 -164 q 655 -125 649 -81 q 644 -58 644 -38 q 643 -18 643 -3 q 643 15 645 30 q 650 63 661 89 q 670 111 686 127 q 701 143 727 139 q 740 136 748 128 q 755 121 758 108 q 760 96 751 76 q 748 69 744 62 q 739 54 734 45 l 733 45 q 733 43 731 41 q 726 33 716 10 q 706 -13 704 -45 q 702 -68 706 -94 q 709 -121 722 -148 q 736 -175 761 -200 q 786 -224 828 -242 q 859 -254 879 -259 q 890 -262 901 -263 l 902 -263 q 914 -265 926 -266 q 938 -268 950 -270 q 1005 -274 1050 -266 q 1095 -257 1131 -240 q 1167 -222 1194 -199 q 1222 -176 1242 -152 q 1290 -95 1312 -19 q 1333 50 1322 100 q 1310 151 1281 186 q 1252 220 1214 241 q 1176 262 1143 273 q 1127 271 1113 270 q 1099 268 1086 268 q 1079 268 1076 269 q 1039 271 1026 282 q 1011 295 1017 312 q 1022 327 1037 335 q 1062 345 1113 326 q 1118 324 1122 322 q 1127 320 1132 318 q 1202 315 1258 340 q 1315 365 1356 406 q 1398 446 1424 496 q 1451 545 1462 592 q 1468 616 1468 638 q 1468 657 1462 675 q 1455 693 1436 704 q 1404 720 1366 712 q 1329 704 1299 687 q 1265 667 1233 638 q 1201 609 1172 576 q 1143 544 1118 510 q 1093 477 1073 447 q 1062 430 1052 412 q 1041 394 1030 376 q 1001 324 977 274 q 953 224 934 180 q 932 175 928 168 q 924 162 918 156 q 912 151 904 148 q 895 144 884 146 q 865 149 861 160 q 857 172 857 179 q 866 238 882 300 q 897 363 919 428 q 937 480 957 528 q 977 575 997 617 q 956 627 912 644 q 869 661 825 680 q 775 701 732 714 q 690 728 658 735 q 627 742 607 745 q 587 748 583 748 q 557 750 533 750 q 509 750 486 748 q 460 747 436 742 q 423 739 412 736 q 402 732 394 729 q 384 725 377 722 q 363 715 351 706 q 339 698 331 690 q 321 680 313 671 q 286 639 252 585 q 239 563 226 557 q 214 551 203 552 q 191 553 180 562 q 172 570 168 580 q 165 588 166 600 q 168 611 179 625 q 199 648 225 670 q 247 689 278 710 q 308 731 345 748 q 402 776 483 782 q 558 788 645 776 q 732 763 823 733 q 848 725 872 716 q 897 707 920 698 q 949 687 974 678 q 999 668 1021 662 q 1031 679 1040 694 q 1049 708 1059 720 q 1061 722 1066 730 q 1072 737 1083 745 q 1116 771 1149 754 q 1164 746 1170 736 q 1177 727 1179 719 z m 1087 701 q 1081 694 1076 686 q 1071 679 1066 670 q 1061 662 1056 654 q 1084 649 1104 654 q 1123 659 1136 677 l 1136 678 q 1138 682 1143 692 q 1148 702 1146 711 q 1145 713 1143 716 q 1141 720 1133 724 q 1125 729 1117 726 q 1109 722 1102 717 q 1094 711 1087 701 z"},"K":{"x_min":0,"x_max":1146,"ha":1146,"o":"m 109 6 q 109 0 108 -5 q 107 -10 106 -14 q 106 -19 104 -22 q 98 -38 88 -44 q 79 -51 71 -53 q 61 -56 51 -53 q 41 -51 34 -43 q 28 -37 24 -25 q 19 -13 21 7 q 23 27 30 50 q 36 70 48 96 q 60 121 81 150 q 82 153 92 166 q 101 179 119 199 q 137 219 166 244 q 194 268 233 294 q 248 304 263 313 q 276 321 291 329 q 306 337 320 344 q 357 362 398 379 q 439 396 487 412 q 542 430 594 444 q 646 458 690 468 q 735 478 768 484 q 801 491 818 494 q 831 528 851 563 q 907 664 980 685 q 982 686 990 688 q 997 689 1008 690 q 1019 690 1031 688 q 1043 685 1054 678 q 1062 672 1070 660 q 1078 649 1080 627 q 1084 568 1023 528 q 978 496 896 476 q 888 448 879 414 q 870 381 860 340 q 855 320 850 300 q 845 281 840 261 q 897 278 942 296 q 988 313 1020 327 q 1058 344 1087 360 q 1139 390 1176 422 q 1214 453 1240 483 q 1267 513 1284 540 q 1300 568 1309 591 q 1317 612 1320 631 q 1322 650 1322 666 q 1321 682 1318 693 q 1316 704 1315 709 q 1310 723 1306 734 q 1303 746 1301 755 q 1298 777 1304 788 q 1310 800 1318 805 q 1328 810 1341 810 q 1367 808 1378 788 q 1389 767 1393 744 q 1397 717 1394 682 q 1390 660 1384 637 q 1379 617 1370 593 q 1361 569 1347 546 q 1329 514 1306 484 q 1282 453 1253 426 q 1213 389 1164 356 q 1115 324 1057 298 q 1008 275 964 260 q 919 246 884 237 q 906 222 927 204 q 944 189 963 170 q 982 151 994 132 q 1034 70 1053 -14 q 1074 -109 1110 -163 q 1146 -217 1204 -240 q 1253 -257 1291 -255 q 1329 -253 1355 -238 q 1381 -223 1397 -200 q 1413 -177 1419 -152 q 1422 -140 1426 -131 q 1430 -123 1436 -117 q 1442 -111 1453 -112 q 1468 -114 1472 -123 q 1477 -132 1475 -144 q 1474 -149 1471 -163 q 1468 -177 1461 -191 q 1444 -226 1420 -246 q 1396 -266 1374 -275 q 1348 -286 1327 -288 q 1306 -290 1298 -290 q 1263 -290 1234 -284 q 1206 -277 1186 -269 q 1162 -259 1145 -247 q 1111 -224 1086 -189 q 1062 -154 1042 -114 q 1023 -73 1006 -30 q 990 14 973 54 q 958 89 937 114 q 916 140 894 157 q 872 174 853 184 q 834 194 822 198 q 805 141 784 86 q 764 32 738 -18 q 712 -67 680 -110 q 648 -152 609 -184 q 567 -216 519 -236 q 477 -253 424 -262 q 371 -272 312 -257 q 260 -245 237 -202 q 225 -181 223 -157 q 221 -133 224 -113 q 226 -93 230 -80 q 234 -66 235 -65 q 290 86 465 167 q 530 196 600 215 q 671 234 750 251 q 765 299 777 355 q 778 359 784 388 q 791 416 805 457 q 785 453 756 448 q 728 442 692 434 q 601 411 528 385 q 456 359 399 331 q 342 303 300 274 q 257 246 226 218 q 189 183 166 148 q 144 114 132 84 q 119 55 114 34 q 110 13 109 6 z m 1046 625 q 1045 636 1042 642 q 1038 648 1033 651 q 1028 655 1022 655 q 1005 657 991 650 q 977 643 966 633 q 956 623 950 612 q 943 602 940 598 q 933 583 925 563 q 917 543 908 514 q 939 524 963 534 q 987 544 1004 556 q 1049 586 1046 625 z m 420 73 q 377 46 349 18 q 321 -10 304 -37 q 287 -64 279 -89 q 271 -114 269 -135 q 268 -143 268 -151 q 268 -158 269 -166 q 270 -173 273 -181 q 278 -193 289 -206 q 300 -218 323 -225 q 352 -232 395 -229 q 438 -226 489 -195 q 572 -144 640 -26 q 692 65 732 192 q 645 168 562 139 q 480 110 420 73 z"},"R":{"x_min":0,"x_max":1445,"ha":1445,"o":"m 1751 -201 q 1759 -208 1763 -218 q 1767 -226 1768 -237 q 1769 -248 1764 -262 q 1759 -274 1749 -280 q 1741 -285 1728 -285 q 1715 -285 1697 -271 q 1685 -262 1668 -246 q 1652 -231 1630 -214 q 1609 -198 1582 -184 q 1555 -170 1522 -164 q 1462 -156 1388 -152 q 1314 -147 1223 -146 q 1017 -141 954 -40 q 927 4 929 58 q 916 26 904 -9 q 891 -44 883 -76 q 878 -96 877 -116 q 876 -133 880 -152 q 883 -172 896 -186 q 909 -205 936 -208 q 943 -208 950 -210 q 963 -213 974 -221 q 983 -229 986 -241 q 990 -253 980 -270 q 975 -278 967 -281 q 959 -284 950 -284 q 941 -284 932 -282 q 922 -280 915 -277 q 901 -273 890 -266 q 878 -259 870 -253 q 860 -246 852 -238 q 826 -213 815 -178 q 807 -153 804 -125 q 802 -97 808 -55 q 812 -24 821 10 q 830 44 838 73 q 848 106 859 140 q 753 149 646 190 q 639 193 636 200 q 634 206 636 212 q 639 219 646 222 q 652 224 658 222 q 673 219 688 215 q 701 212 714 210 q 728 207 739 205 q 767 202 802 199 q 837 196 879 197 q 895 240 914 282 q 932 325 952 367 q 990 442 1030 506 q 1069 570 1106 621 q 1069 631 1030 646 q 991 662 952 679 q 902 700 860 714 q 818 727 786 734 q 754 741 734 744 q 715 747 710 747 q 663 752 626 748 q 588 744 561 738 q 529 731 505 721 q 491 714 480 706 q 468 697 459 689 q 448 679 440 670 q 426 654 412 633 q 397 612 380 584 q 366 562 354 556 q 342 550 331 551 q 319 552 308 561 q 300 569 296 579 q 293 587 294 598 q 295 610 307 624 q 327 647 353 669 q 375 688 405 709 q 435 730 473 747 q 530 775 611 781 q 686 787 772 774 q 859 762 950 732 q 976 724 1000 715 q 1024 706 1048 697 q 1074 687 1096 678 q 1119 670 1139 664 q 1153 681 1164 695 q 1176 709 1187 720 q 1189 722 1198 730 q 1206 738 1220 746 q 1233 753 1250 756 q 1266 758 1283 749 q 1297 742 1302 733 q 1307 724 1309 716 q 1311 706 1309 696 q 1307 686 1304 678 q 1300 670 1296 664 q 1292 659 1291 657 q 1276 637 1256 625 q 1239 614 1214 608 q 1189 602 1158 610 q 1135 573 1108 526 q 1081 480 1053 428 q 1025 375 998 318 q 970 260 948 201 q 972 248 1005 300 q 1033 345 1072 400 q 1112 456 1164 515 q 1165 517 1174 528 q 1183 538 1197 554 q 1211 569 1230 588 q 1249 608 1272 629 q 1402 747 1496 754 q 1497 754 1507 754 q 1517 754 1532 752 q 1546 749 1562 742 q 1577 736 1589 724 q 1648 662 1578 520 q 1555 475 1522 432 q 1488 388 1445 348 q 1398 304 1344 268 q 1291 232 1232 206 q 1109 151 978 140 q 975 121 975 96 q 975 70 983 42 q 991 15 1009 -12 q 1027 -38 1060 -60 q 1094 -81 1146 -96 q 1197 -110 1271 -113 q 1441 -118 1552 -134 q 1576 -136 1598 -140 q 1619 -143 1636 -147 q 1655 -151 1673 -157 q 1687 -162 1701 -168 q 1713 -173 1726 -182 q 1740 -190 1751 -201 z m 1280 548 q 1232 504 1190 458 q 1148 413 1114 368 q 1079 324 1052 283 q 1024 242 1003 208 q 1083 222 1168 258 q 1252 293 1332 362 q 1405 425 1452 473 q 1498 521 1525 557 q 1552 593 1563 618 q 1574 643 1576 659 q 1578 675 1574 683 q 1570 691 1568 694 q 1558 703 1538 705 q 1519 707 1485 693 q 1451 679 1400 645 q 1350 611 1280 548 z m 1237 712 q 1224 702 1214 692 q 1205 682 1198 673 q 1190 662 1185 653 q 1211 648 1228 654 q 1246 659 1260 672 q 1268 680 1270 686 q 1273 693 1275 698 q 1276 704 1276 709 q 1274 717 1262 719 q 1251 721 1237 712 z"},"T":{"x_min":0,"x_max":715,"ha":715,"o":"m 512 -267 q 485 -255 468 -236 q 452 -218 442 -201 q 431 -181 425 -159 q 413 -107 427 -34 q 439 29 471 110 q 497 176 536 250 q 575 324 627 408 q 644 464 649 510 q 654 556 652 594 q 627 587 599 584 q 571 582 547 581 q 519 580 491 580 q 408 580 346 597 q 283 614 248 648 q 221 674 212 706 q 204 739 216 774 q 226 803 252 826 q 264 837 278 844 q 293 852 310 859 q 343 870 382 873 q 421 876 462 870 q 511 862 554 844 q 598 825 630 796 q 699 734 710 647 q 735 650 760 656 q 786 661 808 666 q 833 672 857 679 q 883 687 912 696 q 940 706 963 715 q 990 726 1017 737 q 1115 777 1195 798 q 1275 818 1347 822 q 1369 823 1394 822 q 1415 821 1442 818 q 1468 814 1495 805 q 1506 801 1524 794 q 1542 786 1558 774 q 1574 763 1583 747 q 1592 731 1586 711 q 1585 706 1582 702 q 1580 698 1576 694 q 1571 690 1566 688 q 1558 684 1547 685 q 1536 686 1521 695 q 1512 700 1502 708 q 1492 717 1479 727 q 1458 741 1432 748 q 1418 752 1403 754 q 1372 760 1337 760 q 1302 760 1268 756 q 1234 753 1202 746 q 1171 740 1147 733 q 1114 723 1072 710 q 1030 697 992 685 q 953 673 924 664 q 895 654 888 652 q 854 603 814 542 q 775 482 734 416 q 693 350 654 281 q 615 212 582 144 q 549 77 525 14 q 501 -48 491 -100 q 489 -111 488 -126 q 488 -141 492 -156 q 496 -171 507 -184 q 518 -196 539 -201 q 546 -203 553 -205 q 559 -207 565 -210 q 571 -212 576 -217 q 584 -225 586 -238 q 588 -251 577 -266 q 571 -274 563 -276 q 555 -278 546 -278 q 537 -277 528 -274 q 519 -270 512 -267 z m 467 835 q 439 841 416 841 q 392 841 375 839 q 355 836 337 831 q 307 822 292 808 q 276 794 270 781 q 262 765 263 749 q 263 720 287 700 q 311 680 340 668 q 373 654 417 645 q 474 634 532 633 q 590 632 647 638 q 642 666 636 686 q 629 707 622 721 q 614 737 606 748 q 592 770 574 785 q 555 800 536 810 q 518 820 500 826 q 481 832 467 835 z m 716 545 q 730 565 742 583 q 754 601 767 618 q 739 610 715 606 q 716 596 716 581 q 717 566 716 545 z"},"P":{"x_min":0,"x_max":1423,"ha":1423,"o":"m 935 201 q 959 248 992 300 q 1020 345 1060 400 q 1099 456 1151 515 q 1155 520 1184 554 q 1214 587 1260 629 q 1390 746 1483 754 l 1484 754 q 1485 754 1495 754 q 1505 754 1519 752 q 1533 749 1548 742 q 1564 736 1576 724 q 1636 661 1565 520 q 1543 475 1510 432 q 1476 388 1432 348 q 1386 304 1332 268 q 1278 232 1219 206 q 1088 146 950 139 q 933 102 918 64 q 905 32 892 -6 q 878 -44 870 -76 q 865 -96 864 -116 q 863 -133 867 -152 q 871 -172 883 -186 q 897 -205 924 -208 q 931 -208 938 -210 q 951 -213 962 -221 q 971 -229 974 -241 q 977 -253 967 -270 q 957 -286 938 -284 q 918 -282 902 -277 q 889 -273 878 -266 q 866 -259 858 -253 q 847 -246 839 -238 q 827 -226 818 -211 q 808 -196 803 -178 q 795 -153 792 -125 q 789 -97 795 -55 q 800 -24 808 10 q 817 44 825 73 q 835 106 846 140 q 739 149 633 190 q 627 193 624 200 q 621 206 624 212 q 626 219 632 222 q 639 224 646 222 q 661 219 675 215 q 687 212 701 210 q 715 207 726 205 q 754 202 789 199 q 824 196 866 197 q 897 281 940 367 q 978 442 1017 506 q 1056 570 1093 621 q 1056 631 1017 646 q 978 662 940 679 q 890 700 848 714 q 805 727 774 734 q 742 741 722 744 q 702 747 698 747 q 651 752 613 748 q 575 744 548 738 q 516 731 492 721 q 478 714 466 706 q 454 697 446 689 q 436 679 428 670 q 401 638 367 584 q 354 562 342 556 q 329 550 318 551 q 306 552 295 561 q 287 569 283 579 q 280 587 282 598 q 283 610 294 624 q 314 647 340 669 q 362 688 392 709 q 423 730 460 747 q 517 775 598 781 q 673 787 760 774 q 847 762 938 732 q 963 724 988 715 q 1012 706 1035 697 q 1061 687 1084 678 q 1106 670 1126 664 q 1140 681 1152 695 q 1164 709 1175 720 q 1176 722 1185 730 q 1194 738 1207 746 q 1220 753 1236 756 q 1253 758 1271 749 q 1285 742 1290 733 q 1295 724 1297 716 q 1299 706 1297 696 q 1295 686 1291 678 q 1287 670 1283 664 q 1279 659 1278 657 q 1263 637 1243 625 q 1226 614 1201 608 q 1176 602 1145 610 q 1122 573 1095 526 q 1068 480 1040 428 q 1012 375 985 318 q 958 260 935 201 z m 1319 362 q 1392 425 1438 473 q 1485 521 1512 557 q 1539 593 1550 618 q 1561 643 1563 659 q 1565 675 1561 683 q 1557 691 1555 694 q 1545 703 1526 705 q 1506 707 1472 693 q 1438 679 1388 645 q 1338 611 1268 548 q 1219 504 1178 458 q 1136 413 1102 368 q 1067 324 1039 283 q 1011 242 990 208 q 1070 222 1154 258 q 1239 293 1319 362 z m 1224 712 q 1200 693 1186 673 q 1178 662 1173 653 q 1199 648 1216 654 q 1234 659 1248 672 q 1256 680 1259 686 q 1262 693 1263 698 q 1264 704 1263 709 q 1261 717 1250 719 q 1238 721 1224 712 z"},"t":{"x_min":0,"x_max":242,"ha":242,"o":"m 417 582 q 346 584 263 579 q 252 562 242 546 q 231 529 226 518 q 212 494 199 469 q 188 448 174 424 q 161 400 150 379 q 116 314 90 252 q 79 226 68 198 q 58 170 50 144 q 41 117 36 92 q 32 68 33 49 q 33 43 37 36 q 41 29 51 33 q 74 40 100 64 q 125 88 148 114 q 174 145 200 182 q 215 202 228 222 q 241 241 252 256 q 254 260 257 263 q 262 268 266 267 q 271 265 274 260 q 277 255 272 245 q 264 229 254 212 q 246 198 236 180 q 226 163 216 147 q 191 111 163 81 q 139 55 109 32 q 79 9 48 3 q 34 0 16 1 q -2 2 -20 17 q -31 27 -34 48 q -38 68 -36 89 q -35 114 -29 141 q -23 170 -14 198 q -6 227 4 254 q 18 297 36 341 q 55 385 75 426 q 95 467 116 504 q 136 540 154 570 q 124 568 97 564 q 73 561 48 558 q 22 554 2 552 q -16 549 -37 546 q -55 544 -78 541 q -101 538 -127 536 q -189 529 -234 532 q -278 536 -307 543 q -341 551 -363 562 q -379 571 -386 582 q -394 592 -397 602 q -400 611 -400 618 q -399 626 -398 629 q -396 637 -393 643 q -391 648 -387 652 q -383 657 -378 658 q -362 660 -358 651 q -355 642 -356 626 q -356 609 -341 597 q -328 586 -300 577 q -272 568 -217 568 q -199 568 -175 570 q -155 572 -128 574 q -100 577 -66 582 q -9 590 36 595 q 81 600 113 604 q 150 608 179 612 q 195 637 203 648 q 223 679 238 698 q 253 716 266 729 q 278 740 289 746 q 299 751 310 752 q 320 754 330 746 q 338 739 339 727 q 340 715 336 700 q 331 686 322 670 q 313 653 302 637 q 301 635 299 632 q 297 630 294 626 q 292 623 290 619 q 313 620 334 620 q 356 621 377 620 q 412 620 446 616 q 475 613 508 606 q 542 600 570 586 q 579 581 589 575 q 597 570 606 562 q 614 553 621 542 q 623 536 626 528 q 628 521 630 512 q 631 503 629 492 q 626 469 618 461 q 610 453 602 454 q 594 455 596 462 q 597 468 600 476 q 603 487 604 495 q 604 503 603 509 q 602 516 601 521 q 596 531 587 539 q 578 547 568 552 q 557 558 544 563 q 528 568 509 572 q 492 575 469 578 q 446 581 417 582 z"},"M":{"x_min":0,"x_max":1791,"ha":1791,"o":"m 133 328 q 140 338 149 349 q 157 358 167 370 q 177 381 189 392 q 210 412 230 426 q 249 440 264 450 q 282 461 297 469 q 313 477 324 476 q 336 475 344 470 q 353 464 359 454 q 365 441 363 429 q 361 418 352 408 q 343 397 320 389 q 311 386 302 383 q 294 380 286 377 q 275 372 260 364 q 244 356 229 344 q 216 333 200 316 q 184 298 168 274 q 152 249 138 216 q 125 184 117 143 q 105 83 109 26 q 113 -30 136 -78 q 158 -125 200 -162 q 241 -198 304 -217 q 322 -222 340 -224 q 359 -227 373 -229 q 390 -231 405 -232 q 471 -232 534 -206 q 598 -181 656 -141 q 714 -101 766 -51 q 817 -1 859 48 q 908 106 948 162 q 988 219 1016 264 q 1045 309 1061 337 q 1077 365 1077 366 q 1077 366 1086 383 q 1096 400 1112 427 q 1129 454 1151 489 q 1173 524 1199 560 q 1228 603 1256 637 q 1283 671 1308 697 q 1374 765 1420 769 q 1443 771 1463 762 q 1483 754 1495 736 q 1502 724 1506 706 q 1511 688 1508 662 q 1505 636 1492 601 q 1480 566 1453 520 q 1425 472 1399 421 q 1376 376 1350 322 q 1324 269 1302 215 q 1330 266 1360 318 q 1391 369 1425 419 q 1507 541 1579 605 q 1663 683 1731 680 q 1734 680 1746 679 q 1757 678 1771 673 q 1785 668 1800 658 q 1815 649 1826 631 q 1865 564 1787 430 l 1787 429 q 1750 368 1728 314 q 1705 261 1691 226 q 1646 120 1634 27 q 1622 -66 1634 -132 q 1646 -199 1678 -234 q 1710 -268 1753 -257 q 1776 -251 1792 -240 q 1808 -228 1819 -214 q 1793 -204 1778 -188 q 1762 -173 1757 -153 q 1752 -132 1760 -115 q 1769 -98 1784 -89 q 1798 -80 1815 -80 q 1832 -81 1846 -94 q 1858 -105 1862 -118 q 1867 -131 1867 -143 q 1867 -155 1864 -164 q 1862 -174 1861 -178 q 1931 -190 1998 -182 q 2064 -174 2140 -159 q 2170 -153 2196 -150 q 2221 -146 2241 -144 q 2249 -143 2266 -142 q 2284 -140 2308 -140 q 2331 -139 2359 -140 q 2387 -141 2416 -145 q 2461 -150 2494 -162 q 2528 -174 2551 -186 q 2577 -200 2597 -217 q 2611 -230 2614 -242 q 2618 -253 2618 -261 q 2617 -271 2613 -279 q 2604 -290 2593 -294 q 2583 -298 2569 -296 q 2555 -293 2537 -276 q 2489 -231 2456 -208 q 2444 -200 2426 -192 q 2411 -185 2389 -179 q 2367 -173 2337 -170 q 2323 -169 2310 -169 q 2298 -169 2287 -169 q 2275 -169 2264 -170 q 2231 -174 2200 -182 q 2168 -189 2135 -198 q 2102 -207 2066 -216 q 2031 -224 1990 -228 q 1944 -233 1907 -231 q 1870 -229 1841 -221 q 1825 -246 1806 -259 q 1788 -272 1771 -278 q 1752 -285 1733 -286 q 1697 -290 1662 -276 q 1628 -263 1600 -232 q 1572 -202 1554 -154 q 1537 -105 1536 -40 q 1536 26 1554 109 q 1573 192 1618 293 q 1647 356 1678 409 q 1709 462 1739 504 q 1764 540 1772 565 q 1781 590 1779 605 q 1777 619 1772 626 q 1766 634 1760 638 q 1753 642 1744 644 q 1707 649 1665 622 q 1623 594 1580 546 q 1536 497 1493 434 q 1450 371 1412 306 q 1373 240 1341 179 q 1309 118 1287 74 q 1285 69 1280 57 q 1275 45 1268 28 q 1264 18 1263 13 q 1262 9 1261 5 q 1259 -2 1255 -11 q 1251 -20 1244 -28 q 1238 -37 1229 -42 q 1220 -48 1208 -47 q 1202 -47 1198 -46 q 1193 -44 1190 -42 q 1186 -40 1184 -38 q 1174 -30 1172 -18 q 1170 -7 1170 -1 q 1173 77 1200 172 q 1226 268 1285 383 q 1319 450 1352 502 q 1385 555 1415 596 q 1436 625 1446 646 q 1457 668 1460 683 q 1464 698 1462 708 q 1460 717 1456 723 q 1447 734 1436 732 q 1425 730 1414 723 q 1402 715 1389 702 q 1369 682 1342 646 q 1314 609 1275 552 q 1236 494 1184 413 q 1132 332 1063 224 q 999 123 936 48 q 872 -26 812 -78 q 753 -131 699 -165 q 645 -199 600 -220 q 556 -240 522 -248 q 488 -257 469 -260 q 452 -263 434 -264 q 418 -266 399 -266 q 380 -265 361 -263 q 216 -245 133 -165 q 96 -129 73 -82 q 52 -39 46 13 q 41 46 43 80 q 45 115 53 150 q 68 218 103 280 q 116 305 133 328 z m 1812 -164 q 1817 -166 1821 -168 q 1825 -170 1830 -172 q 1835 -173 1840 -174 q 1842 -166 1842 -159 q 1842 -152 1842 -147 q 1842 -141 1841 -136 q 1837 -119 1828 -112 q 1824 -108 1819 -107 q 1812 -106 1805 -108 q 1798 -110 1793 -114 q 1788 -119 1786 -126 q 1784 -133 1787 -141 q 1790 -149 1797 -154 q 1804 -160 1812 -164 z"},"g":{"x_min":0,"x_max":425,"ha":425,"o":"m 212 -62 q 208 -62 203 -61 q 192 -59 182 -52 q 169 -75 154 -98 q 138 -120 120 -141 q 175 -152 233 -163 q 283 -172 342 -180 q 402 -189 458 -194 q 503 -198 536 -192 q 570 -186 593 -178 q 619 -168 638 -155 q 655 -143 676 -126 q 696 -110 719 -88 q 737 -71 751 -68 q 765 -65 775 -69 q 786 -73 795 -85 q 799 -93 800 -103 q 800 -111 796 -122 q 793 -133 779 -146 q 759 -164 731 -179 q 707 -192 672 -204 q 636 -215 589 -220 q 541 -224 482 -222 q 422 -221 351 -213 q 309 -208 264 -202 q 218 -195 180 -189 q 135 -182 93 -175 q 78 -192 62 -209 q 45 -226 26 -243 q 3 -263 -26 -282 q -51 -299 -85 -317 q -119 -335 -161 -348 q -192 -358 -227 -363 q -257 -368 -296 -368 q -336 -368 -379 -358 q -417 -350 -438 -335 q -459 -320 -470 -305 q -482 -288 -485 -269 q -487 -245 -475 -221 q -465 -202 -437 -180 q -409 -158 -353 -144 q -306 -131 -244 -125 q -191 -120 -117 -120 q -43 -119 51 -132 q 77 -100 96 -65 q 116 -30 130 0 q 146 35 159 70 q 147 52 130 35 q 116 21 95 7 q 74 -7 46 -13 q 21 -19 0 -12 q -20 -6 -32 14 q -45 34 -47 68 q -49 102 -36 151 q -26 189 -11 220 q 4 252 18 274 q 35 300 52 319 q 69 339 89 356 q 106 370 130 382 q 155 394 184 396 q 213 398 233 387 q 250 378 262 356 q 273 333 266 289 q 275 297 285 300 q 295 302 304 297 q 315 290 318 278 q 322 266 320 253 q 319 240 314 228 q 309 215 305 207 q 289 175 272 138 q 254 101 242 68 q 229 35 226 10 q 222 -16 234 -23 q 245 -18 257 -7 q 269 4 282 18 q 294 32 306 48 q 318 64 329 80 q 355 118 380 162 q 400 196 415 222 q 430 249 440 263 q 441 265 444 266 q 448 268 454 265 q 459 263 456 253 q 447 228 433 197 q 421 171 402 136 q 382 101 354 60 q 337 35 319 12 q 303 -8 282 -27 q 262 -46 242 -55 q 225 -62 212 -62 z m 91 46 q 111 63 129 84 q 147 106 161 125 q 177 147 191 169 q 197 184 205 200 q 213 215 221 228 q 230 243 238 257 q 239 262 240 273 q 241 284 240 296 q 239 308 236 318 q 232 328 224 331 q 201 341 169 314 q 137 286 100 236 q 82 212 66 180 q 49 147 38 116 q 26 85 20 60 q 15 35 20 25 q 25 14 36 15 q 46 16 55 21 q 61 24 68 28 q 74 32 79 36 q 85 40 91 46 z m -302 -334 q -249 -334 -202 -320 q -156 -307 -116 -284 q -75 -262 -41 -232 q -7 -203 22 -169 q -20 -166 -70 -165 q -119 -164 -179 -166 q -283 -170 -338 -185 q -394 -200 -419 -216 q -449 -235 -452 -259 q -453 -265 -452 -270 q -451 -275 -450 -280 q -449 -286 -444 -291 q -431 -308 -407 -316 q -383 -325 -360 -329 q -333 -333 -302 -334 z"},"j":{"x_min":0,"x_max":202,"ha":202,"o":"m 153 347 q 142 345 134 353 q 125 361 122 369 q 117 383 118 405 q 120 427 128 451 q 136 475 150 499 q 164 523 185 542 q 201 557 218 566 q 232 574 248 576 q 265 578 279 567 q 288 558 292 547 q 295 538 291 526 q 287 514 270 500 q 250 485 229 468 q 208 451 192 434 q 175 417 166 400 q 156 382 161 365 q 162 361 162 357 q 162 354 160 351 q 158 348 153 347 z m -38 154 q -36 162 -33 170 q -30 177 -28 183 q -25 190 -22 197 q -5 237 14 268 q 34 298 48 312 q 58 322 68 328 q 76 333 86 336 q 96 340 106 335 q 118 330 120 318 q 123 306 120 290 q 116 275 108 257 q 99 239 87 222 q 78 207 66 186 q 54 165 44 141 q 35 117 28 93 q 22 69 24 49 q 25 42 29 35 q 33 28 46 34 q 57 40 71 54 q 85 68 97 82 q 111 99 125 119 q 140 141 154 164 q 168 187 180 207 q 192 227 202 242 q 211 258 218 266 q 219 267 221 267 q 226 267 231 265 q 235 264 234 257 q 234 252 218 218 q 198 175 173 135 q 152 101 124 66 q 95 32 63 12 q 62 12 54 8 q 47 4 36 2 q 25 -1 12 -1 q -2 -1 -15 6 q -32 -28 -55 -67 q -78 -106 -108 -141 q -53 -152 5 -163 q 55 -172 114 -180 q 174 -189 230 -194 q 275 -198 308 -192 q 342 -186 365 -178 q 391 -168 410 -155 q 427 -143 448 -126 q 468 -110 491 -88 q 509 -71 523 -68 q 537 -65 547 -69 q 558 -73 567 -85 q 572 -94 573 -104 q 574 -112 570 -123 q 565 -134 551 -146 q 531 -164 503 -179 q 479 -192 444 -204 q 408 -215 361 -220 q 313 -224 254 -222 q 194 -221 123 -213 q 81 -208 36 -202 q -10 -195 -48 -189 q -93 -182 -135 -175 q -150 -192 -166 -209 q -183 -226 -203 -243 q -225 -263 -254 -282 q -279 -299 -313 -317 q -347 -335 -389 -348 q -420 -358 -455 -363 q -485 -368 -525 -368 q -565 -368 -608 -358 q -646 -350 -666 -335 q -687 -320 -698 -305 q -710 -288 -713 -269 q -715 -245 -703 -221 q -693 -202 -665 -180 q -637 -158 -581 -144 q -534 -131 -472 -125 q -419 -120 -345 -120 q -271 -119 -177 -132 q -140 -81 -114 -31 q -87 19 -70 61 q -51 109 -38 154 z m -530 -334 q -477 -334 -430 -320 q -384 -307 -344 -284 q -303 -262 -269 -232 q -235 -203 -206 -169 q -248 -166 -298 -165 q -347 -164 -407 -166 q -511 -170 -566 -185 q -622 -200 -647 -216 q -677 -235 -680 -259 q -682 -265 -681 -270 q -681 -281 -672 -291 q -659 -308 -635 -316 q -611 -325 -588 -329 q -561 -333 -530 -334 z"},"i":{"x_min":0,"x_max":204,"ha":204,"o":"m 65 12 q 63 11 54 7 q 46 3 32 0 q 19 -2 4 1 q -12 4 -27 16 q -42 29 -44 58 q -47 87 -40 122 q -33 158 -20 194 q -7 231 9 258 q 32 297 49 320 q 66 344 80 358 q 90 368 100 374 q 108 379 118 382 q 128 385 138 381 q 149 376 152 364 q 155 352 152 336 q 148 321 140 303 q 131 285 119 267 q 110 252 94 224 q 77 195 62 163 q 46 131 35 100 q 24 68 26 48 q 27 41 31 34 q 35 27 47 34 q 54 37 62 44 q 70 51 78 59 q 87 68 95 78 q 103 87 110 97 q 118 107 126 118 q 141 140 155 163 q 169 186 182 206 q 194 226 204 242 q 213 257 220 265 q 221 266 222 266 l 224 266 q 226 266 228 266 q 230 266 232 265 q 237 262 236 256 q 234 250 219 217 q 212 201 202 181 q 192 161 178 138 q 164 115 148 93 q 133 71 114 51 q 106 43 98 36 q 91 30 82 23 q 73 16 65 12 z m 311 614 q 321 606 325 596 q 329 588 327 578 q 325 567 312 556 q 295 542 272 524 q 250 506 230 487 q 211 468 200 448 q 188 429 192 412 q 193 408 193 404 q 193 396 184 395 q 173 393 164 400 q 156 408 153 416 q 148 430 150 452 q 151 474 159 498 q 167 522 182 546 q 196 570 216 589 q 233 604 250 613 q 264 621 280 623 q 297 625 311 614 z"},"y":{"x_min":0,"x_max":400,"ha":400,"o":"m 207 258 q 218 276 229 294 q 239 309 252 326 q 265 344 279 359 q 288 369 298 375 q 306 380 316 383 q 326 386 336 382 q 348 377 350 365 q 353 353 350 338 q 346 322 338 304 q 329 286 318 268 q 308 253 292 224 q 275 196 260 164 q 244 132 234 100 q 223 69 225 49 q 225 42 229 35 q 233 28 246 34 q 257 40 271 54 q 285 68 297 82 q 311 99 325 119 q 340 141 354 164 q 368 187 380 207 q 392 227 402 242 q 411 258 418 266 q 419 267 421 267 q 426 267 431 265 q 435 264 434 257 q 434 252 418 218 q 398 175 373 135 q 352 101 324 66 q 296 32 264 12 q 262 12 256 8 q 249 5 238 3 q 228 1 216 0 q 203 0 190 6 q 173 -29 150 -68 q 127 -106 97 -141 q 152 -152 210 -163 q 260 -172 320 -180 q 379 -189 435 -194 q 480 -198 514 -192 q 547 -186 570 -178 q 596 -168 615 -155 q 632 -143 652 -126 q 673 -110 696 -88 q 714 -71 728 -68 q 742 -65 752 -69 q 763 -73 772 -85 q 777 -94 778 -104 q 779 -112 774 -123 q 770 -134 756 -146 q 736 -164 708 -179 q 684 -192 648 -204 q 613 -215 566 -220 q 518 -224 458 -222 q 399 -221 328 -213 q 286 -208 240 -202 q 195 -195 157 -189 q 112 -182 70 -175 q 55 -192 38 -209 q 22 -226 3 -243 q -20 -263 -49 -282 q -74 -299 -108 -317 q -142 -335 -184 -348 q -215 -358 -250 -363 q -280 -368 -320 -368 q -359 -368 -402 -358 q -440 -350 -461 -335 q -482 -320 -493 -305 q -505 -288 -508 -269 q -510 -245 -498 -221 q -488 -202 -460 -180 q -432 -158 -376 -144 q -329 -131 -267 -125 q -214 -120 -140 -120 q -66 -119 28 -132 q 56 -94 78 -56 q 100 -17 116 18 q 132 53 142 82 q 153 110 159 128 q 144 104 128 82 q 113 59 98 41 q 82 23 67 12 q 52 1 39 0 q 27 -2 19 0 q 11 1 3 5 q -19 16 -26 40 q -33 64 -34 85 q -35 96 -34 108 q -33 119 -31 128 q -29 139 -27 148 q -16 202 4 252 q 25 302 52 350 q 58 360 66 372 q 75 384 86 393 q 96 402 108 406 q 121 410 135 405 q 148 400 151 388 q 154 377 152 364 q 149 352 142 340 q 136 327 132 319 q 104 274 82 226 q 59 179 45 129 q 40 110 37 92 q 35 76 34 60 q 34 43 39 29 q 41 30 52 42 q 64 53 85 79 q 106 105 136 148 q 166 192 207 258 z m -325 -334 q -272 -334 -226 -320 q -179 -307 -138 -284 q -98 -262 -64 -232 q -30 -203 -1 -169 q -43 -166 -92 -165 q -142 -164 -202 -166 q -306 -170 -362 -185 q -417 -200 -442 -216 q -472 -235 -475 -259 q -476 -265 -475 -270 q -474 -275 -473 -280 q -472 -286 -467 -291 q -454 -308 -430 -316 q -406 -325 -383 -329 q -356 -333 -325 -334 z"},"@":{"x_min":0,"x_max":896,"ha":896,"o":"m 779 48 q 785 44 783 36 q 781 28 779 24 q 757 -21 729 -54 q 701 -87 670 -110 q 640 -132 608 -146 q 577 -160 547 -167 q 477 -185 403 -178 q 331 -168 280 -145 q 230 -122 196 -92 q 163 -61 144 -26 q 124 10 114 46 q 91 130 110 229 q 122 289 156 350 q 190 412 244 461 q 299 510 373 540 q 447 571 539 570 q 624 569 685 536 q 746 503 778 451 q 810 399 811 334 q 812 268 778 202 q 767 179 754 160 q 742 142 728 126 l 728 127 q 728 126 726 124 q 724 122 722 120 q 720 117 718 115 q 713 110 703 100 q 693 90 679 78 q 655 57 624 37 q 592 17 558 9 q 542 6 536 8 q 512 10 502 23 q 491 36 487 44 q 485 50 485 53 l 485 56 q 482 69 483 85 q 484 101 487 119 q 476 103 462 89 q 450 77 432 65 q 414 53 390 48 q 369 43 351 48 q 333 54 322 71 q 312 88 310 117 q 309 146 320 188 q 328 221 341 248 q 354 275 366 294 q 380 316 395 333 q 409 351 427 365 q 442 377 463 388 q 484 398 509 400 q 533 401 551 392 q 566 384 576 364 q 587 345 580 307 q 588 314 596 316 q 604 319 612 314 q 622 308 624 298 q 627 288 626 276 q 625 265 621 254 q 617 244 614 237 q 595 201 576 158 q 556 115 548 83 q 546 77 547 72 q 548 67 551 63 q 554 59 562 58 q 576 56 607 68 q 638 81 675 119 q 702 147 722 192 q 743 236 745 302 q 747 342 739 373 q 731 404 717 426 q 703 449 684 464 q 666 479 647 489 q 601 512 541 515 q 485 514 440 500 q 396 486 360 464 q 324 442 297 414 q 270 385 251 356 q 204 287 183 200 q 171 140 175 94 q 179 48 194 14 q 208 -21 230 -44 q 253 -68 278 -83 q 337 -119 420 -126 q 497 -137 554 -120 q 612 -104 654 -76 q 695 -48 720 -16 q 746 17 759 39 q 761 42 766 47 q 772 52 779 48 z m 429 99 q 446 113 462 132 q 477 150 489 167 q 503 186 515 205 q 520 218 528 231 q 535 244 541 255 q 548 267 555 280 q 556 284 557 294 q 558 303 557 314 q 556 324 553 332 q 550 341 543 344 q 524 352 496 328 q 469 305 437 262 q 421 241 407 213 q 393 185 383 158 q 373 132 368 110 q 364 89 368 81 q 373 71 382 72 q 390 73 398 77 q 403 79 408 83 q 414 87 419 91 q 424 95 429 99 z"},".":{"x_min":0,"x_max":152,"ha":152,"o":"m 118 23 q 120 7 110 -10 q 100 -26 77 -28 q 66 -30 56 -26 q 48 -23 40 -16 q 33 -9 32 6 q 30 20 35 30 q 40 41 48 48 q 55 55 64 58 q 73 60 81 59 q 113 55 118 23 z"},"p":{"x_min":0,"x_max":384,"ha":384,"o":"m 61 83 q 64 106 72 119 q 76 126 81 132 q 87 139 96 146 q 106 152 120 156 q 135 160 155 160 q 175 160 202 153 q 220 182 236 212 q 251 243 260 268 q 268 294 268 311 q 268 328 255 330 q 241 331 221 318 q 201 305 178 283 q 156 261 132 234 q 109 207 88 182 q 81 172 62 144 q 43 115 25 80 q 17 64 10 48 q 4 32 -2 18 q -30 -52 -51 -116 q -60 -143 -68 -172 q -76 -202 -82 -230 q -88 -257 -90 -282 q -93 -307 -90 -326 q -90 -328 -89 -331 q -89 -333 -88 -335 q -88 -337 -88 -338 q -86 -347 -86 -356 q -86 -364 -97 -369 q -105 -372 -112 -371 q -120 -370 -126 -368 q -137 -363 -144 -354 q -150 -344 -154 -334 q -158 -324 -160 -314 q -162 -305 -162 -299 q -164 -275 -162 -258 q -161 -248 -160 -240 q -157 -211 -150 -179 q -144 -147 -137 -119 q -122 -53 -98 14 q -73 81 -48 138 q -24 194 -3 235 q 18 276 27 292 q 44 324 58 344 q 71 364 83 378 q 87 383 92 387 q 97 391 102 395 q 107 399 114 402 q 120 404 125 405 q 135 407 145 401 q 162 388 154 356 q 147 323 127 290 q 125 285 121 279 q 115 268 106 252 q 127 279 150 304 q 174 329 198 348 q 222 366 246 376 q 270 386 291 383 q 316 379 326 356 q 337 332 336 298 q 334 263 322 222 q 311 182 291 143 q 302 141 318 143 q 333 145 348 148 q 364 150 376 153 q 389 156 393 157 q 400 159 402 156 q 403 153 401 148 q 399 143 394 136 q 392 134 380 130 q 368 126 350 123 q 333 120 313 118 q 293 116 275 118 q 251 81 220 52 q 189 24 154 10 q 140 4 128 4 q 117 4 108 6 q 97 9 89 14 q 76 22 70 33 q 64 44 62 54 q 60 65 60 73 q 61 81 61 83 z m 98 66 q 102 61 106 59 q 115 53 131 64 q 136 67 140 71 q 144 75 148 79 q 156 88 165 100 q 174 112 183 125 q 149 132 131 125 q 113 118 105 106 q 105 105 102 101 q 100 97 98 92 q 96 86 96 79 q 95 72 98 66 z"},"X":{"x_min":0,"x_max":1276,"ha":1276,"o":"m 510 -282 q 481 -284 454 -280 q 427 -276 406 -271 q 381 -265 359 -256 q 311 -237 270 -206 q 229 -175 199 -133 q 188 -117 188 -98 q 189 -79 207 -68 q 218 -62 228 -62 q 239 -63 248 -68 q 257 -74 264 -82 q 272 -91 277 -101 q 290 -125 306 -148 q 321 -170 340 -190 q 356 -206 375 -217 q 394 -228 414 -235 q 430 -240 449 -244 q 466 -247 489 -248 q 512 -250 541 -245 q 626 -233 702 -190 q 779 -146 845 -86 q 911 -26 964 41 q 1018 108 1057 166 q 1061 235 1062 298 q 1063 362 1058 413 q 1050 496 1033 542 q 1016 587 996 608 q 977 629 960 632 q 942 635 934 634 q 911 630 892 617 q 872 604 858 590 q 841 573 828 552 q 815 529 806 502 q 798 476 792 449 q 787 422 785 396 q 783 370 782 348 q 782 330 784 298 q 787 267 796 230 q 798 225 799 220 q 800 215 800 210 q 801 205 802 200 q 803 184 798 176 q 792 167 785 162 q 777 157 766 154 q 755 153 745 157 q 737 161 728 170 q 720 178 718 196 q 716 221 716 249 q 716 273 718 304 q 720 336 728 371 q 738 419 749 454 q 760 489 768 512 q 778 538 787 556 q 830 633 898 659 q 976 688 1031 643 q 1085 597 1110 485 q 1129 408 1133 306 q 1191 403 1234 496 q 1276 588 1300 668 q 1249 690 1241 729 q 1238 744 1242 757 q 1245 770 1253 780 q 1261 789 1272 795 q 1283 801 1295 801 q 1299 801 1310 800 q 1321 799 1335 789 q 1342 784 1348 777 q 1353 771 1358 762 q 1364 753 1367 742 q 1373 723 1372 699 q 1434 691 1495 700 q 1556 708 1624 721 q 1653 727 1679 730 q 1705 733 1725 735 q 1733 736 1750 738 q 1768 739 1792 740 q 1815 740 1842 739 q 1870 738 1899 734 q 1944 729 1978 716 q 2011 704 2034 692 q 2060 677 2080 661 q 2094 648 2098 636 q 2101 625 2101 617 q 2100 607 2096 599 q 2087 588 2076 584 q 2066 580 2052 582 q 2038 585 2020 602 q 1997 625 1976 642 q 1956 658 1939 670 q 1928 679 1910 687 q 1895 694 1872 700 q 1850 706 1821 709 q 1807 711 1794 710 q 1782 710 1771 710 q 1759 709 1748 709 q 1715 706 1684 698 q 1652 690 1619 682 q 1586 673 1550 665 q 1515 657 1474 653 q 1414 646 1366 652 q 1351 581 1312 484 q 1274 386 1198 258 q 1183 232 1168 208 q 1152 184 1136 161 q 1134 89 1130 10 q 1126 -69 1119 -168 q 1118 -181 1119 -194 q 1119 -205 1120 -218 q 1122 -231 1126 -241 q 1128 -246 1130 -258 q 1131 -271 1122 -279 q 1113 -287 1104 -288 q 1096 -289 1088 -287 q 1079 -285 1071 -279 q 1061 -273 1054 -264 q 1048 -254 1044 -244 q 1041 -233 1040 -223 q 1038 -213 1038 -205 q 1037 -154 1041 -90 q 1045 -25 1050 47 q 1038 33 1026 18 q 1014 3 1000 -12 q 903 -124 792 -191 q 723 -233 652 -255 q 582 -277 510 -282 z m 1318 745 q 1319 762 1311 770 q 1307 774 1303 775 q 1296 776 1289 774 q 1282 772 1277 767 q 1272 762 1270 755 q 1268 748 1271 740 q 1276 728 1290 720 q 1304 713 1312 710 q 1313 712 1314 722 q 1316 733 1318 745 z"},"*":{"x_min":0,"x_max":220,"ha":220,"o":"m 196 567 q 196 562 193 558 q 191 553 184 543 q 176 533 161 531 l 146 531 q 155 516 167 493 q 169 488 167 486 q 165 483 159 483 q 154 483 142 484 q 130 484 121 497 q 117 503 116 506 q 112 497 108 488 q 105 478 100 467 q 97 462 94 462 q 92 462 87 467 q 84 472 78 480 q 72 488 73 500 q 69 498 66 495 q 62 492 57 489 q 56 488 54 488 q 52 487 50 489 q 47 492 47 498 q 47 503 46 512 q 46 520 51 529 l 34 529 q 31 528 29 529 q 25 531 25 535 q 25 540 27 545 q 29 550 33 556 q 37 562 45 569 q 46 569 48 570 q 52 572 55 572 q 58 572 63 572 q 68 573 74 573 q 69 581 64 590 q 58 598 52 607 l 50 611 q 48 615 52 618 q 56 620 61 621 q 66 622 72 622 q 79 621 89 618 q 90 617 92 616 q 94 615 94 614 q 95 613 97 611 q 99 609 101 606 q 103 603 105 599 q 108 608 110 617 q 113 626 116 636 l 118 640 q 120 644 124 643 q 129 641 133 637 q 141 629 148 611 l 148 607 q 156 613 160 617 l 164 619 q 167 620 170 617 q 172 612 173 607 q 174 602 174 595 q 174 588 171 578 l 171 576 q 171 574 169 572 q 174 572 179 572 q 184 572 189 571 q 191 571 193 570 q 195 569 196 567 z"},"Y":{"x_min":0,"x_max":1158,"ha":1158,"o":"m 560 -583 q 528 -588 498 -587 q 469 -586 446 -584 q 419 -581 394 -576 q 302 -551 256 -489 q 232 -456 223 -412 q 218 -392 217 -371 q 216 -350 218 -333 q 220 -314 223 -295 q 229 -260 240 -234 q 245 -223 252 -212 q 258 -202 266 -195 q 275 -188 286 -184 q 296 -181 309 -183 q 321 -186 329 -194 q 336 -201 338 -214 q 341 -226 332 -246 q 327 -256 320 -269 q 312 -282 304 -297 q 302 -301 296 -312 q 291 -324 286 -340 q 281 -357 278 -377 q 275 -397 279 -416 q 282 -434 290 -453 q 297 -472 312 -489 q 326 -506 348 -520 q 370 -535 403 -543 q 458 -558 509 -548 q 560 -538 599 -519 q 645 -498 685 -465 q 742 -414 787 -344 q 832 -273 866 -196 q 898 -123 915 -54 q 932 15 940 68 q 899 -2 856 -68 q 813 -134 770 -184 q 726 -234 683 -262 q 640 -289 600 -283 q 564 -278 542 -262 q 521 -247 510 -225 q 499 -203 497 -176 q 495 -149 498 -122 q 502 -94 510 -69 q 517 -44 525 -24 q 533 -6 545 19 q 557 44 563 57 q 585 100 607 144 q 629 187 648 230 q 668 272 684 312 q 700 352 711 387 q 735 467 736 516 q 737 564 727 591 q 717 618 702 627 q 686 636 679 638 q 655 644 634 640 q 613 637 597 631 q 579 623 563 612 q 539 596 520 574 q 500 552 484 528 q 467 503 454 478 q 441 452 431 430 q 424 413 414 383 q 404 353 399 316 q 399 311 398 306 q 397 301 396 296 q 396 292 394 288 q 388 272 380 266 q 371 259 363 257 q 353 254 343 257 q 331 261 324 268 q 317 274 314 285 q 310 296 315 313 q 321 338 332 364 q 341 387 355 415 q 369 443 389 472 q 408 501 428 528 q 445 551 468 576 q 490 602 513 621 q 548 650 584 663 q 619 676 655 675 q 738 673 771 610 q 804 550 786 434 q 778 385 762 326 q 745 268 719 200 q 706 167 691 132 q 676 97 659 61 q 651 44 644 28 q 637 14 630 0 q 623 -15 618 -26 q 600 -64 590 -94 q 580 -123 576 -145 q 571 -167 572 -182 q 572 -198 575 -208 q 583 -232 605 -237 q 622 -242 642 -234 q 661 -226 681 -210 q 701 -194 722 -172 q 742 -151 760 -127 q 803 -72 846 1 q 892 89 928 157 q 965 225 992 276 q 1020 328 1040 364 q 1059 400 1072 424 q 1098 472 1123 513 q 1148 554 1168 584 q 1192 619 1214 649 q 1262 709 1298 738 q 1334 766 1360 777 q 1389 789 1411 785 q 1427 781 1431 768 q 1433 762 1432 755 q 1359 720 1282 616 q 1206 511 1128 348 q 1123 337 1112 310 q 1101 284 1085 243 q 1068 200 1048 144 q 1029 89 1009 23 q 1008 19 1003 0 q 998 -19 990 -48 q 981 -77 970 -113 q 958 -149 944 -186 q 935 -211 924 -238 q 914 -261 900 -290 q 887 -318 871 -347 q 838 -404 800 -448 q 763 -492 718 -522 q 646 -571 560 -583 z"},"c":{"x_min":0,"x_max":352,"ha":352,"o":"m 31 75 q 29 58 34 43 q 38 28 54 20 q 58 18 62 17 q 67 16 72 15 q 104 11 130 19 q 155 27 175 39 q 191 48 202 58 q 213 67 221 74 q 238 91 254 110 q 271 129 283 145 q 297 163 310 182 q 325 202 338 222 q 351 241 362 256 q 364 260 367 263 q 372 268 376 267 q 381 265 384 260 q 387 255 383 245 q 375 229 365 212 q 357 198 346 180 q 336 163 326 147 q 322 141 317 134 q 312 128 306 120 q 300 113 292 104 q 285 95 268 77 q 252 59 227 39 q 202 19 170 2 q 139 -16 103 -22 q 65 -29 40 -24 q 14 -20 -1 -12 q -19 -3 -29 11 q -43 31 -46 65 q -49 99 -35 151 q -25 189 -10 220 q 5 252 19 274 q 36 300 53 319 q 71 340 89 354 q 107 368 121 376 q 138 386 154 391 q 165 395 177 396 q 188 397 201 395 q 214 393 228 386 q 232 384 236 381 q 242 377 252 366 q 261 355 267 340 q 272 327 275 308 q 278 289 274 266 q 273 261 270 251 q 268 241 264 232 q 259 222 252 214 q 246 207 237 207 q 224 207 218 212 q 212 217 212 226 q 211 236 214 249 q 218 262 224 276 q 230 289 234 302 q 239 314 234 323 q 231 330 225 331 q 203 341 170 314 q 138 286 102 236 q 85 215 70 188 q 56 160 45 132 l 45 131 q 42 124 39 115 q 37 107 34 97 q 32 87 31 75 z"},"/":{"x_min":0,"x_max":493,"ha":493,"o":"m 456 758 q 468 756 474 748 q 479 741 480 729 q 481 717 480 701 q 478 685 476 667 q 469 624 454 576 q 438 527 416 475 q 394 423 366 368 q 339 314 309 260 l 249 157 q 220 107 194 57 q 169 7 148 -42 q 126 -90 110 -136 q 94 -181 85 -222 q 83 -230 80 -241 q 78 -252 74 -262 q 70 -271 64 -278 q 58 -284 49 -284 q 32 -283 25 -274 q 18 -264 15 -253 q 11 -209 24 -154 q 36 -98 60 -36 q 83 27 116 94 q 148 161 185 228 l 246 331 q 303 432 348 531 q 393 630 410 713 q 411 718 414 726 q 418 735 424 742 q 429 750 437 755 q 445 760 456 758 z"},"[":{"x_min":0,"x_max":587,"ha":587,"o":"m 141 -279 q 133 -281 127 -279 q 114 -278 104 -272 q 95 -265 88 -256 q 82 -248 78 -239 q 75 -230 73 -223 q 63 -181 68 -127 q 72 -73 88 -12 q 103 50 127 116 q 151 182 179 246 q 207 311 237 372 q 267 433 294 484 q 321 535 344 574 q 366 614 379 635 q 380 636 382 638 q 383 641 386 646 q 387 647 389 651 q 398 665 412 685 q 426 705 443 722 q 461 741 486 752 q 512 762 550 752 q 560 748 564 742 q 568 736 566 726 q 565 717 554 702 q 546 691 538 692 q 529 692 516 687 q 504 682 486 662 q 467 642 440 590 q 417 545 385 481 q 353 417 318 345 q 282 273 248 198 q 213 124 184 59 q 156 -6 138 -56 q 120 -105 118 -128 q 114 -171 127 -192 q 140 -214 155 -222 q 158 -224 162 -228 q 165 -232 165 -240 q 165 -250 162 -258 q 160 -265 155 -271 q 150 -277 141 -279 z"},"6":{"x_min":0,"x_max":673,"ha":673,"o":"m 735 562 q 737 478 694 412 q 671 375 630 340 q 628 338 618 330 q 609 321 595 311 q 572 294 550 283 q 529 272 512 265 q 492 257 475 253 q 441 244 414 243 q 391 242 369 250 q 347 257 341 283 q 338 295 342 306 q 345 315 356 322 q 366 329 389 330 q 405 330 429 326 q 453 323 481 322 q 509 322 540 329 q 570 336 599 358 q 605 362 606 363 l 609 366 q 704 446 701 561 q 698 617 676 654 q 657 683 630 696 q 603 709 574 712 q 546 715 520 710 q 493 706 475 701 q 444 692 430 683 q 400 667 366 641 q 333 615 297 576 q 261 537 224 484 q 186 430 149 359 q 114 292 93 233 q 72 174 61 121 q 92 167 135 194 q 203 237 295 234 q 327 233 348 229 q 369 225 374 224 q 377 223 388 220 q 398 218 414 212 q 430 207 449 198 q 468 188 488 175 q 507 161 526 142 q 545 122 558 96 q 572 69 578 35 q 584 1 577 -42 q 562 -131 511 -190 q 470 -237 409 -261 q 372 -275 340 -279 q 307 -283 290 -283 l 276 -283 q 205 -283 140 -255 q 67 -222 24 -159 q -26 -85 -28 27 q -29 89 -13 160 q 3 230 35 311 q 124 538 271 654 q 305 681 338 699 q 370 717 400 728 q 430 740 456 746 q 483 752 504 755 q 507 755 524 756 q 541 758 565 755 q 589 752 618 742 q 646 733 671 712 q 732 662 735 562 z m 153 165 q 141 157 130 149 q 120 141 111 130 q 107 125 100 115 q 93 105 86 89 q 78 73 72 50 q 66 28 63 0 q 60 -31 69 -68 q 78 -105 99 -140 q 120 -174 152 -202 q 185 -230 229 -242 q 254 -247 291 -244 q 328 -240 366 -219 q 404 -198 436 -155 q 469 -112 486 -36 q 500 30 486 73 q 472 116 448 142 q 424 167 399 178 q 374 189 366 191 l 365 191 q 356 193 345 195 q 335 197 322 198 q 309 200 293 200 q 265 201 227 194 q 189 188 153 165 z"},"r":{"x_min":0,"x_max":282,"ha":282,"o":"m 241 334 q 241 338 237 340 q 235 341 233 340 q 228 340 212 328 q 196 317 175 297 q 154 277 130 250 q 107 223 87 192 q 67 161 52 126 q 38 92 36 58 l 36 52 q 36 47 38 37 q 40 29 40 20 q 39 10 29 6 q 16 -1 0 6 q -14 13 -20 23 q -35 50 -34 84 q -34 119 -28 148 q -17 202 4 252 q 24 302 51 350 q 57 360 66 372 q 74 384 85 393 q 96 402 108 406 q 121 410 135 405 q 148 400 151 388 q 154 377 151 364 q 148 352 142 340 q 136 327 131 319 q 107 280 85 237 q 101 261 120 286 q 139 310 158 330 q 178 350 198 364 q 219 379 238 382 q 259 386 273 378 q 287 370 291 358 q 296 340 286 314 q 276 289 263 272 q 258 265 252 261 q 247 257 240 256 q 234 254 226 259 q 213 266 214 276 q 214 287 220 298 q 226 309 234 318 q 241 328 241 334 z"},"2":{"x_min":0,"x_max":592,"ha":592,"o":"m 535 708 q 598 630 562 472 q 562 470 556 448 q 549 426 534 388 q 519 351 494 301 q 468 251 431 193 q 387 124 334 61 q 282 -2 222 -59 q 167 -111 106 -157 q 45 -203 -22 -245 q 128 -257 212 -247 q 297 -237 332 -217 q 346 -209 352 -200 q 357 -191 369 -188 q 375 -186 380 -187 q 385 -188 389 -190 q 393 -192 397 -195 q 408 -206 406 -218 q 403 -230 401 -236 q 383 -272 307 -285 q 284 -289 254 -291 q 224 -293 189 -293 q 177 -293 164 -293 q 152 -293 138 -292 q 84 -290 30 -286 q -25 -281 -74 -276 q -75 -276 -75 -275 q -82 -274 -94 -272 q -105 -269 -107 -258 q -107 -257 -108 -256 q -108 -256 -108 -255 l -108 -253 q -108 -246 -104 -242 q -101 -238 -99 -236 q 46 -131 154 -18 q 262 96 335 202 q 408 308 448 399 q 487 490 497 550 q 507 611 498 647 q 490 683 475 701 q 458 722 435 727 q 412 732 399 732 q 355 730 321 714 q 287 698 262 676 q 237 653 220 627 q 202 601 192 578 q 186 564 178 532 q 170 501 167 448 q 166 440 166 432 q 166 425 165 419 q 161 396 152 387 q 144 378 135 376 q 124 373 111 378 q 87 387 82 410 q 77 432 81 455 q 85 482 99 514 q 101 520 105 528 q 108 535 112 544 q 117 552 124 563 q 142 595 168 632 q 195 669 232 700 q 269 730 316 750 q 362 769 420 766 q 423 766 435 764 q 447 763 464 758 q 480 752 499 740 q 518 729 535 708 z"},"9":{"x_min":0,"x_max":676,"ha":676,"o":"m 615 628 q 671 552 677 442 q 685 319 630 158 q 552 -69 412 -185 q 347 -238 286 -260 q 226 -281 184 -286 q 182 -286 174 -287 q 166 -288 154 -288 q 128 -288 102 -281 q 75 -274 40 -245 q 12 -224 -7 -188 q -21 -164 -28 -140 q -35 -116 -38 -96 q -42 -73 -42 -51 q -44 -16 -40 10 q -36 33 -24 52 q -12 70 14 70 q 27 69 37 63 q 45 58 50 46 q 55 34 51 12 q 48 -4 39 -32 q 30 -59 25 -90 q 20 -122 23 -153 q 26 -184 47 -206 q 68 -227 90 -236 q 113 -244 134 -245 q 155 -246 174 -242 q 194 -238 210 -233 q 225 -228 236 -223 q 248 -218 254 -215 q 283 -199 316 -172 q 348 -146 382 -107 q 415 -68 450 -15 q 484 38 517 109 q 549 176 567 236 q 585 295 593 348 q 567 303 523 274 q 457 232 365 234 q 333 235 312 239 q 290 243 286 245 q 283 245 272 248 q 261 251 245 256 q 229 262 210 271 q 190 280 170 294 q 150 307 130 326 q 109 346 94 372 q 79 399 72 434 q 64 468 69 511 q 80 601 127 659 q 165 706 225 730 q 249 739 272 744 q 294 749 312 750 q 330 752 342 752 q 354 752 357 752 q 393 751 428 744 q 462 738 494 724 q 570 690 615 628 z m 504 303 q 525 317 544 339 q 547 343 554 353 q 560 363 566 379 q 573 395 578 418 q 584 440 585 469 q 586 500 576 537 q 565 574 542 608 q 519 643 485 670 q 451 698 406 710 q 380 715 344 712 q 307 709 270 688 q 233 667 202 624 q 172 580 160 504 q 153 460 158 427 q 164 394 177 369 q 190 344 208 328 q 225 311 242 300 q 259 290 273 284 q 287 279 292 278 l 293 278 q 303 275 314 273 q 324 271 336 270 q 349 268 365 268 q 393 268 431 274 q 469 280 504 303 z"}," ":{"x_min":0,"x_max":249,"ha":249,"o":""},"I":{"x_min":0,"x_max":797,"ha":797,"o":"m 932 -216 q 935 -223 939 -231 q 941 -238 944 -246 q 946 -253 946 -261 q 946 -265 944 -269 q 940 -278 931 -282 q 929 -283 926 -283 q 920 -283 916 -282 q 908 -280 903 -276 q 898 -272 895 -267 q 891 -262 889 -255 q 887 -253 885 -248 q 883 -244 881 -239 q 878 -234 876 -227 q 863 -203 841 -196 q 819 -190 804 -190 q 776 -192 738 -202 q 700 -213 648 -237 q 593 -264 542 -277 q 492 -290 445 -290 q 390 -290 339 -270 q 299 -252 269 -227 q 255 -216 244 -204 q 234 -192 226 -183 q 217 -172 210 -162 q 189 -136 178 -110 q 169 -88 168 -65 q 167 -42 188 -27 q 199 -20 210 -20 q 220 -20 230 -27 q 241 -34 250 -54 q 254 -62 256 -73 q 259 -84 263 -97 q 265 -106 270 -122 q 276 -137 287 -154 q 296 -167 310 -182 q 323 -197 342 -210 q 362 -223 386 -232 q 411 -242 443 -244 q 436 -219 436 -191 q 436 -163 440 -134 q 444 -106 451 -78 q 458 -50 467 -24 q 487 36 517 94 q 530 127 554 174 q 577 220 605 271 q 633 322 662 373 q 692 424 718 466 q 735 522 740 568 q 745 614 743 652 q 718 645 690 642 q 662 640 638 638 q 610 636 582 637 q 499 637 436 654 q 374 672 339 705 q 282 758 307 832 q 316 862 343 884 q 366 904 401 916 q 434 928 472 931 q 511 934 552 928 q 601 920 644 902 q 688 883 721 854 q 786 796 800 712 q 824 718 847 723 q 867 728 888 732 q 909 737 923 739 q 1053 761 1151 754 q 1178 751 1200 746 q 1223 742 1241 737 q 1247 735 1264 730 q 1281 724 1295 716 q 1305 711 1322 701 q 1339 691 1354 678 q 1368 664 1375 647 q 1382 630 1373 611 q 1371 606 1367 602 q 1359 593 1349 590 q 1341 588 1330 590 q 1320 592 1306 603 q 1298 610 1288 620 q 1279 630 1268 641 q 1261 648 1252 654 q 1242 659 1233 664 q 1222 669 1210 674 q 1183 684 1152 690 q 1122 696 1090 698 q 1058 701 1028 701 q 997 701 970 698 q 938 650 896 585 q 854 520 809 445 q 764 370 718 290 q 672 210 632 132 q 589 57 557 -13 q 543 -43 530 -74 q 518 -106 509 -136 q 500 -166 496 -194 q 492 -221 496 -242 q 541 -236 584 -222 q 627 -208 660 -195 q 673 -189 685 -185 q 696 -181 707 -177 q 718 -173 726 -171 q 832 -141 890 -174 q 905 -182 916 -194 q 926 -205 932 -216 z m 508 703 q 556 695 598 692 q 639 690 671 692 q 707 693 738 698 q 733 725 726 745 q 719 765 712 779 q 704 795 696 806 q 682 828 664 843 q 646 858 627 868 q 608 877 590 883 q 572 889 557 892 q 529 899 504 900 q 480 900 462 897 q 440 893 422 887 q 394 877 380 864 q 366 850 360 837 q 353 822 353 806 q 353 777 377 758 q 401 738 430 726 q 464 712 508 703 z m 807 603 q 820 623 832 641 q 845 659 857 676 q 833 669 805 664 q 806 654 807 638 q 808 623 807 603 z"},"H":{"x_min":0,"x_max":1273,"ha":1273,"o":"m 1818 -169 q 1806 -167 1793 -167 q 1780 -167 1769 -168 q 1757 -169 1745 -170 q 1712 -173 1680 -181 q 1649 -189 1616 -198 q 1583 -206 1548 -214 q 1512 -223 1471 -227 q 1378 -236 1322 -220 q 1306 -245 1288 -258 q 1269 -271 1252 -277 q 1233 -284 1214 -285 q 1180 -289 1148 -273 q 1115 -257 1090 -223 q 1064 -189 1048 -137 q 1033 -85 1034 -16 q 1035 53 1056 138 q 1076 223 1121 324 q 1093 310 1052 295 q 1017 282 963 266 q 909 251 836 235 q 813 154 783 78 q 753 2 712 -62 q 670 -125 616 -171 q 561 -217 489 -236 q 465 -242 439 -246 q 416 -249 386 -249 q 356 -249 321 -241 q 298 -236 276 -221 q 254 -206 245 -186 q 235 -164 234 -140 q 232 -116 234 -96 q 236 -76 240 -63 q 243 -50 243 -48 q 300 107 482 187 q 546 216 616 234 q 686 253 758 268 q 773 316 785 372 q 786 376 792 404 q 799 433 813 474 q 793 470 764 464 q 736 459 701 451 q 610 428 538 402 q 465 376 408 348 q 351 320 308 292 q 266 263 235 235 q 198 200 176 166 q 153 131 140 102 q 128 72 124 51 q 119 30 118 23 q 117 15 115 7 q 113 0 111 -6 q 109 -13 106 -18 q 99 -28 91 -32 q 83 -36 76 -37 q 67 -38 59 -36 q 49 -34 42 -26 q 36 -20 32 -8 q 27 4 29 24 q 32 44 39 67 q 45 87 57 112 q 69 138 89 167 q 90 170 100 183 q 109 196 128 216 q 146 236 174 260 q 202 285 241 311 q 275 332 315 353 q 350 371 396 392 q 442 412 495 429 q 550 446 602 460 q 655 474 699 484 q 743 495 776 502 q 810 508 827 511 q 838 553 860 591 q 878 623 910 655 q 941 687 989 702 q 991 703 998 704 q 1006 706 1016 706 q 1027 707 1039 704 q 1051 702 1062 695 q 1070 689 1078 678 q 1086 666 1088 644 q 1092 586 1032 545 q 988 514 904 493 q 896 465 887 432 q 878 398 868 357 q 863 339 859 321 q 855 303 850 286 q 911 295 964 308 q 1017 322 1057 336 q 1104 352 1142 369 q 1170 421 1197 469 q 1220 511 1247 554 q 1274 598 1297 628 q 1327 668 1354 696 q 1380 723 1402 740 q 1424 757 1442 766 q 1460 775 1473 779 q 1485 784 1507 786 q 1529 788 1549 775 q 1557 770 1564 760 q 1570 750 1572 733 q 1575 707 1559 662 q 1540 612 1492 561 q 1444 508 1373 457 q 1343 436 1310 416 q 1276 396 1241 377 q 1224 342 1206 304 q 1189 267 1172 226 q 1127 120 1115 28 q 1103 -65 1115 -132 q 1127 -199 1159 -233 q 1191 -267 1234 -256 q 1257 -251 1273 -239 q 1289 -227 1300 -214 q 1247 -193 1238 -152 q 1233 -131 1242 -114 q 1250 -97 1264 -88 q 1279 -79 1296 -80 q 1313 -80 1327 -93 q 1339 -104 1344 -117 q 1348 -130 1348 -142 q 1348 -154 1346 -164 q 1343 -173 1342 -177 q 1412 -189 1479 -181 q 1546 -173 1621 -158 q 1651 -152 1676 -148 q 1702 -145 1722 -143 q 1730 -142 1748 -140 q 1765 -139 1788 -138 q 1812 -138 1840 -139 q 1868 -140 1897 -144 q 1942 -149 1976 -161 q 2009 -173 2032 -185 q 2058 -199 2078 -216 q 2092 -229 2096 -240 q 2099 -252 2099 -260 q 2098 -270 2094 -278 q 2085 -289 2074 -293 q 2064 -297 2050 -294 q 2036 -292 2018 -275 q 1973 -232 1937 -208 q 1925 -199 1907 -191 q 1892 -184 1870 -178 q 1848 -172 1818 -169 z m 1054 642 q 1052 660 1043 667 q 1035 671 1030 672 q 1013 674 999 667 q 985 660 974 650 q 964 640 958 630 q 951 619 948 615 q 941 600 934 580 q 926 560 916 531 q 978 549 1013 573 q 1057 603 1054 642 z m 428 90 q 385 63 357 35 q 329 7 312 -20 q 295 -47 287 -72 q 279 -97 277 -118 q 276 -126 276 -134 q 276 -141 277 -148 q 278 -156 281 -164 q 286 -177 297 -189 q 308 -201 331 -208 q 360 -215 403 -212 q 446 -209 497 -178 q 580 -128 648 -9 q 700 82 740 209 q 653 185 570 156 q 488 127 428 90 z m 1484 722 q 1480 720 1476 717 q 1473 714 1469 711 q 1465 707 1460 703 q 1412 661 1364 592 q 1317 524 1268 431 q 1291 444 1312 458 q 1334 471 1354 485 q 1408 523 1448 562 q 1487 602 1510 639 q 1516 650 1521 663 q 1526 676 1529 689 q 1532 702 1532 712 q 1531 723 1525 729 q 1518 737 1506 733 q 1495 729 1484 722 z m 1293 -163 q 1298 -165 1303 -167 q 1308 -169 1312 -170 q 1316 -172 1321 -173 q 1323 -165 1324 -158 q 1324 -151 1324 -146 q 1323 -140 1322 -135 q 1318 -118 1309 -111 q 1305 -107 1300 -106 q 1293 -105 1286 -107 q 1279 -109 1274 -114 q 1269 -119 1267 -126 q 1265 -133 1268 -140 q 1272 -148 1278 -154 q 1285 -159 1293 -163 z"},"4":{"x_min":0,"x_max":577,"ha":577,"o":"m 670 739 q 672 737 674 734 q 675 731 671 727 q 618 687 566 610 q 513 534 462 425 q 448 399 422 344 q 396 289 365 213 q 408 210 440 201 q 494 186 508 147 q 511 140 508 134 q 505 128 498 125 q 496 125 495 124 q 494 124 492 124 q 481 124 476 136 q 462 176 352 179 q 345 160 338 140 q 332 121 324 101 q 278 -23 268 -114 l 268 -118 q 268 -127 268 -140 q 269 -152 273 -164 q 277 -177 284 -188 q 292 -199 306 -206 q 313 -210 325 -212 q 332 -213 339 -215 q 345 -217 352 -220 q 359 -222 364 -227 q 372 -235 376 -246 q 379 -257 372 -271 q 371 -272 369 -276 q 359 -291 339 -288 q 319 -286 304 -280 q 301 -279 297 -277 q 289 -273 286 -271 q 230 -241 208 -175 q 191 -122 199 -50 q 205 13 231 96 q 237 116 244 136 q 251 156 259 177 q 211 173 163 167 q 115 161 72 155 q 62 154 53 153 q 44 152 35 150 q 21 148 9 148 q -3 147 -14 148 q -28 150 -44 158 q -60 166 -71 182 q -74 187 -76 192 q -79 196 -81 202 q -90 233 -83 254 q -76 274 -71 280 q -19 348 28 400 q 74 451 101 480 q 182 567 243 612 q 304 657 348 676 q 358 680 372 682 q 387 685 403 681 q 413 678 422 672 q 430 666 437 655 q 438 653 438 650 q 439 646 434 643 q 372 619 301 560 q 230 501 151 410 q 132 390 96 348 q 59 307 13 248 q 8 241 2 228 q -3 214 4 202 q 9 194 18 191 q 28 188 38 187 q 49 186 63 188 q 64 189 67 189 q 114 195 167 202 q 220 209 273 212 q 290 257 308 297 q 325 337 342 372 q 358 406 372 434 q 386 462 396 481 q 451 587 498 647 q 544 707 580 737 q 588 743 601 750 q 614 756 631 756 q 653 756 670 739 z"},"D":{"x_min":0,"x_max":1705,"ha":1705,"o":"m 1179 719 q 1181 710 1180 699 q 1179 690 1175 678 q 1171 667 1162 655 q 1139 624 1106 614 q 1073 605 1032 610 q 1013 572 994 526 q 974 481 956 431 q 939 381 924 328 q 909 274 899 221 q 915 256 941 306 q 967 356 1000 412 q 1034 467 1076 523 q 1117 579 1164 626 q 1178 641 1193 655 q 1310 765 1427 754 q 1431 754 1448 752 q 1466 750 1491 742 q 1565 719 1609 663 q 1653 607 1665 525 q 1667 510 1668 494 q 1669 479 1669 462 q 1669 453 1668 410 q 1666 367 1653 302 q 1640 236 1610 154 q 1581 72 1526 -15 q 1502 -52 1471 -88 q 1445 -119 1408 -154 q 1371 -190 1326 -219 q 1290 -242 1251 -258 q 1212 -275 1170 -286 q 1137 -295 1102 -300 q 1067 -305 1032 -307 q 1005 -309 980 -308 q 956 -306 937 -304 q 915 -301 896 -297 q 891 -296 868 -291 q 846 -286 814 -273 q 769 -253 734 -226 q 700 -199 679 -164 q 656 -125 649 -81 q 644 -58 644 -38 q 643 -18 643 -3 q 643 15 645 30 q 650 63 661 89 q 670 111 686 127 q 702 143 728 139 q 740 136 748 128 q 755 121 758 108 q 760 96 751 76 q 749 69 744 62 q 739 54 734 45 q 733 44 732 43 q 732 42 731 41 q 726 33 716 10 q 707 -13 705 -45 q 703 -74 710 -110 q 716 -145 742 -178 q 755 -193 772 -207 q 786 -219 807 -231 q 828 -243 854 -251 q 893 -262 946 -268 q 999 -273 1060 -264 q 1121 -255 1186 -228 q 1251 -200 1314 -145 q 1376 -90 1432 -2 q 1489 85 1532 213 q 1566 314 1578 389 q 1591 464 1588 518 q 1586 573 1571 609 q 1556 645 1536 668 q 1516 690 1494 701 q 1472 712 1454 716 q 1398 728 1344 704 q 1289 679 1240 633 q 1190 587 1147 526 q 1104 466 1070 407 q 1035 348 1010 298 q 986 248 974 222 l 975 222 q 967 205 960 192 q 953 178 945 168 q 919 133 884 139 q 875 141 872 144 q 861 152 860 168 q 859 185 860 196 q 870 251 885 310 q 900 368 920 428 q 955 532 998 617 q 956 627 913 644 q 870 661 825 680 q 775 701 733 714 q 691 728 659 735 q 627 742 608 745 q 588 748 583 748 q 557 750 533 750 q 509 750 486 748 q 459 746 437 742 q 423 739 412 736 q 402 732 394 729 q 385 725 378 722 q 364 715 352 706 q 341 698 332 690 q 321 680 313 671 q 299 655 284 634 q 270 613 253 585 q 239 563 227 557 q 215 551 204 552 q 192 553 181 562 q 173 570 169 580 q 166 588 167 600 q 168 611 180 625 q 200 648 226 670 q 248 689 278 710 q 308 731 346 748 q 403 776 484 782 q 559 788 646 776 q 732 763 823 733 q 849 725 873 716 q 897 707 921 698 q 950 687 975 678 q 1000 668 1022 662 q 1031 679 1040 694 q 1050 708 1059 720 q 1061 722 1067 730 q 1073 737 1083 745 q 1117 771 1149 754 q 1165 746 1171 736 q 1177 727 1179 719 z m 1087 701 q 1082 695 1078 688 q 1074 682 1068 674 q 1063 665 1057 654 q 1084 649 1104 654 q 1124 659 1136 677 q 1141 685 1143 691 q 1145 697 1146 702 q 1147 707 1146 711 q 1146 713 1144 716 q 1142 720 1134 724 q 1125 729 1117 726 q 1109 722 1102 717 q 1094 711 1087 701 z"},"0":{"x_min":0,"x_max":771,"ha":771,"o":"m 727 354 q 748 327 752 290 q 757 254 754 220 q 751 186 745 162 q 739 138 738 135 q 694 -17 614 -115 q 548 -196 464 -239 q 405 -269 358 -276 q 312 -283 293 -283 l 284 -283 q 212 -283 146 -254 q 69 -220 25 -157 q -29 -82 -35 28 q -43 152 13 311 q 90 537 231 654 q 263 681 295 699 q 327 717 356 728 q 386 740 412 746 q 438 752 459 755 q 462 755 478 756 q 495 758 520 755 q 544 752 572 743 q 601 734 627 713 q 691 662 699 563 q 707 480 667 412 l 655 394 q 701 388 727 354 z m 250 -245 q 319 -254 376 -232 q 433 -209 478 -166 q 522 -124 556 -68 q 590 -12 613 45 q 636 102 650 153 q 663 204 667 238 q 672 280 670 304 q 667 328 660 341 q 653 354 645 358 q 637 362 631 362 l 629 362 q 618 349 604 338 q 591 327 576 316 q 553 299 530 287 q 507 275 488 267 q 470 259 457 255 q 444 251 441 250 q 436 248 414 241 q 391 234 346 226 q 301 218 232 211 q 162 204 65 202 q 38 102 44 24 q 49 -55 77 -112 q 105 -168 150 -202 q 196 -235 250 -245 z m 373 292 q 478 322 537 362 q 596 403 624 442 q 653 482 660 516 q 666 550 665 566 q 659 626 628 665 q 607 689 580 700 q 553 710 526 712 q 498 714 474 710 q 449 706 432 702 q 403 692 389 683 q 360 667 328 641 q 295 615 261 576 q 227 537 192 484 q 158 430 125 359 q 95 297 78 243 q 147 248 222 259 q 298 270 373 292 z"},"F":{"x_min":0,"x_max":1118,"ha":1118,"o":"m 947 589 q 928 586 904 583 q 884 581 856 578 q 828 576 796 577 q 712 577 649 594 q 586 612 550 646 q 522 672 514 705 q 505 738 517 774 q 527 803 553 826 q 577 847 612 859 q 644 870 683 873 q 722 876 763 870 q 812 862 856 844 q 899 825 931 796 q 1000 734 1011 647 q 1046 650 1092 661 q 1131 670 1186 686 q 1242 703 1312 730 q 1341 741 1368 752 q 1391 761 1416 770 q 1440 778 1455 783 q 1512 800 1559 810 q 1606 820 1648 822 q 1672 824 1694 822 q 1717 821 1737 818 q 1746 816 1757 814 q 1766 812 1776 810 q 1787 808 1796 805 q 1807 802 1825 794 q 1843 787 1859 776 q 1875 764 1884 748 q 1894 732 1888 712 q 1886 707 1883 703 q 1881 699 1876 694 q 1872 690 1867 688 q 1859 685 1848 686 q 1838 686 1822 695 q 1811 701 1798 712 q 1784 724 1767 737 q 1746 753 1726 760 q 1706 767 1695 770 q 1662 778 1628 778 q 1593 777 1565 773 q 1532 768 1501 759 q 1484 754 1455 744 q 1426 735 1398 725 q 1365 714 1329 700 q 1162 633 1016 602 q 1018 587 1018 561 q 1018 535 1014 498 q 1012 490 1012 482 q 1011 475 1010 467 q 1032 471 1055 473 q 1114 475 1147 448 q 1183 418 1174 364 q 1172 357 1166 352 q 1161 348 1154 350 q 1143 353 1141 364 q 1136 382 1124 392 q 1112 403 1100 409 q 1086 416 1070 419 q 1055 421 1038 420 q 1020 419 1000 415 q 996 398 992 382 q 988 365 983 348 q 969 298 950 246 q 930 195 906 141 q 905 139 893 116 q 881 92 858 56 q 836 20 803 -24 q 770 -68 727 -112 q 624 -218 513 -261 q 434 -292 355 -292 q 292 -292 226 -272 q 224 -272 208 -265 q 191 -258 168 -243 q 145 -228 120 -203 q 96 -178 78 -141 q 22 -22 89 147 q 118 220 167 272 q 210 320 269 349 q 295 362 323 370 q 351 378 379 380 q 435 385 481 368 q 496 363 510 354 q 522 346 536 335 q 549 324 560 310 q 580 283 584 256 q 589 230 588 214 q 588 204 587 189 q 586 174 581 157 q 578 143 572 129 q 567 115 559 103 q 551 91 540 84 q 528 77 512 79 q 499 81 491 88 q 483 94 480 106 q 476 119 483 140 q 488 154 498 174 q 508 195 516 218 q 518 226 520 234 q 522 241 523 246 q 524 252 524 258 q 524 285 512 302 q 499 319 482 328 q 464 338 446 342 q 428 345 417 346 q 403 347 372 343 q 342 339 304 316 q 266 294 226 248 q 186 201 155 116 q 125 33 124 -27 q 122 -87 138 -128 q 153 -170 180 -194 q 206 -219 231 -231 q 251 -239 277 -243 q 298 -247 326 -248 q 355 -248 387 -240 q 441 -230 501 -200 q 561 -170 622 -116 q 682 -61 740 22 q 799 104 851 220 q 873 269 889 312 q 905 356 916 394 q 892 386 868 378 q 845 369 823 360 q 803 351 786 344 q 770 336 758 331 q 744 325 732 319 q 726 317 724 317 q 714 317 709 327 q 706 333 708 340 q 711 346 717 349 q 717 349 736 358 q 756 368 787 382 q 818 395 856 412 q 893 428 929 443 q 939 486 943 522 q 947 558 947 589 z m 769 835 q 741 840 718 840 q 694 840 676 838 q 655 835 638 831 q 608 822 592 808 q 577 795 571 781 q 563 765 564 749 q 564 720 588 700 q 612 680 641 668 q 674 654 718 645 q 774 634 831 634 q 888 633 944 638 q 939 676 928 704 q 917 732 904 752 q 890 773 872 787 q 855 801 836 811 q 818 821 800 826 q 783 832 769 835 z"},"`":{"x_min":0,"x_max":246,"ha":246,"o":"m 38 501 q 42 510 47 515 q 52 520 60 521 q 67 522 78 517 q 94 510 114 500 q 133 491 152 484 q 172 477 189 475 q 206 473 217 480 q 219 481 222 482 q 227 484 231 479 q 236 472 233 465 q 230 458 225 453 q 216 445 200 440 q 185 436 166 434 q 146 433 125 436 q 104 439 85 447 q 68 454 57 462 q 47 469 40 478 q 33 488 38 501 z"},"k":{"x_min":0,"x_max":408,"ha":408,"o":"m 32 44 q 32 40 33 36 q 35 28 35 25 q 35 17 33 10 q 31 4 22 2 q 17 0 13 0 q 9 0 4 0 q -1 1 -7 5 q -12 9 -17 14 q -22 18 -24 24 q -32 40 -34 61 q -36 82 -34 100 q -32 121 -28 143 q -21 174 -11 206 q -1 238 10 268 q 20 297 30 322 q 41 347 49 365 q 80 438 125 509 q 104 509 83 510 q 65 510 43 510 q 21 511 2 512 q -40 513 -71 502 q -102 492 -126 477 q -150 462 -168 447 q -187 432 -202 424 q -222 413 -234 414 q -246 416 -254 422 q -263 429 -267 442 q -274 467 -259 484 q -244 501 -223 512 q -198 524 -165 532 q -148 535 -122 538 q -99 540 -64 540 q -28 541 25 539 q 50 538 72 538 q 93 539 110 540 q 129 541 145 542 q 172 582 200 618 q 228 654 255 682 q 282 710 306 729 q 330 748 350 755 q 360 759 371 760 q 380 761 390 760 q 401 758 410 752 q 421 744 427 729 q 432 716 432 695 q 432 674 420 643 q 405 611 379 585 q 356 562 320 542 q 283 523 227 518 q 213 494 200 469 q 189 448 176 424 q 162 400 151 379 q 136 351 122 320 q 109 293 95 259 q 81 225 67 190 q 76 203 87 218 q 98 233 110 247 q 129 270 152 293 q 175 316 199 335 q 223 354 247 368 q 271 381 294 386 q 304 388 316 386 q 327 384 338 376 q 352 363 352 345 q 352 327 347 312 q 344 303 340 295 q 336 287 331 280 q 326 272 319 266 q 305 253 290 246 q 274 239 256 245 q 241 250 237 262 q 233 273 235 284 q 237 297 244 312 q 238 310 226 302 q 215 295 199 281 q 197 276 193 264 q 189 252 184 236 q 180 219 176 200 q 173 181 173 162 q 173 147 176 131 q 178 115 185 102 q 192 88 203 80 q 214 71 232 71 q 245 71 259 76 q 273 82 286 92 q 300 101 312 113 q 325 125 336 138 q 362 168 386 207 q 398 227 408 242 q 417 258 424 266 q 425 267 427 267 q 432 267 437 265 q 441 264 440 257 q 440 252 424 218 q 413 194 399 168 q 387 146 370 120 q 353 93 333 69 q 318 50 300 35 q 285 22 265 12 q 245 1 223 0 q 202 -1 188 4 q 174 10 169 13 q 143 26 128 47 q 113 68 106 92 q 100 116 100 140 q 100 164 104 184 q 80 153 60 118 q 41 82 32 44 z m 396 699 q 393 701 384 702 q 376 703 360 691 q 343 679 316 648 q 290 617 251 556 q 277 559 298 568 q 318 577 332 586 q 348 597 360 609 q 381 634 389 651 q 397 668 399 679 q 401 691 396 699 z"},"u":{"x_min":0,"x_max":401,"ha":401,"o":"m 207 258 q 225 288 238 308 q 252 327 261 338 q 272 351 279 359 q 288 369 298 375 q 306 380 316 383 q 326 386 336 382 q 348 377 350 365 q 353 353 350 338 q 346 322 338 304 q 329 286 318 268 q 308 253 292 224 q 275 196 260 164 q 244 132 233 100 q 222 69 224 49 q 225 42 229 35 q 233 28 245 34 q 257 40 271 54 q 285 68 297 82 q 311 99 325 119 q 340 141 354 164 q 368 187 380 207 q 392 227 402 242 q 411 258 418 266 q 419 267 421 267 q 426 267 431 265 q 435 264 434 257 q 433 255 430 244 q 426 234 418 218 q 398 175 373 135 q 352 101 324 66 q 295 32 263 12 q 262 11 253 7 q 244 3 231 1 q 218 -1 202 2 q 187 5 172 17 q 156 31 154 62 q 152 92 159 129 q 144 105 128 82 q 113 60 97 42 q 81 24 66 12 q 52 1 39 0 q 27 -2 19 0 q 11 1 3 5 q -19 16 -26 40 q -33 64 -34 85 q -35 96 -34 108 q -33 119 -31 128 q -29 139 -28 148 q -16 202 4 252 q 24 302 51 350 q 57 360 66 372 q 74 384 85 393 q 96 402 108 406 q 121 410 135 405 q 148 400 151 388 q 154 377 151 364 q 148 352 142 340 q 136 327 131 319 q 103 274 81 226 q 59 179 45 129 q 40 110 37 92 q 35 76 34 60 q 34 43 39 29 q 41 30 52 42 q 64 53 84 79 q 105 105 136 148 q 166 192 207 258 z"},"]":{"x_min":0,"x_max":587,"ha":587,"o":"m 447 756 l 446 756 q 454 758 460 756 q 473 754 482 748 q 492 741 498 732 q 505 724 508 715 q 512 706 514 700 q 528 644 516 567 q 503 490 474 404 q 446 318 408 230 q 369 142 330 65 q 292 -12 258 -71 q 225 -130 208 -159 q 208 -159 201 -169 l 198 -175 q 189 -189 175 -208 q 161 -228 144 -245 q 127 -264 102 -275 q 76 -286 37 -275 q 27 -271 23 -265 q 19 -260 20 -250 q 21 -241 33 -225 q 41 -214 50 -214 q 58 -215 70 -210 q 83 -205 102 -185 q 120 -165 147 -113 q 170 -69 202 -5 q 234 59 270 131 q 305 203 340 278 q 374 352 402 417 q 431 482 449 532 q 467 581 469 604 q 473 647 460 668 q 447 690 432 698 q 429 700 426 704 q 422 709 422 717 q 422 727 425 735 q 427 742 432 748 q 437 754 447 756 z"},"U":{"x_min":0,"x_max":1126,"ha":1126,"o":"m 1689 -165 q 1673 -164 1660 -164 q 1647 -163 1637 -164 q 1626 -165 1617 -166 q 1584 -169 1552 -177 q 1520 -185 1487 -194 q 1454 -203 1418 -212 q 1383 -220 1342 -224 q 1296 -229 1259 -227 q 1222 -225 1193 -217 q 1177 -242 1158 -255 q 1140 -268 1123 -274 q 1104 -281 1085 -282 q 1046 -286 1008 -264 q 971 -243 945 -198 q 919 -152 909 -82 q 899 -13 914 78 q 873 7 829 -60 q 785 -128 740 -180 q 696 -231 652 -260 q 608 -289 568 -283 q 532 -278 510 -262 q 489 -247 478 -225 q 467 -203 465 -176 q 463 -149 466 -122 q 470 -94 478 -69 q 485 -44 493 -24 q 501 -6 512 19 q 524 44 531 57 q 575 143 616 230 q 657 316 679 387 q 703 467 704 516 q 705 564 695 591 q 685 618 670 627 q 654 636 647 638 q 618 643 594 638 q 569 632 551 624 q 530 613 513 599 q 473 565 445 518 q 417 471 399 430 q 388 407 382 386 q 376 364 372 347 q 368 327 366 309 q 364 284 355 273 q 346 262 336 258 q 325 254 311 257 q 300 261 292 268 q 285 274 281 285 q 277 296 282 313 q 288 338 299 364 q 308 387 322 415 q 336 443 356 472 q 374 499 394 526 q 411 549 434 575 q 456 601 481 621 q 516 650 552 663 q 587 676 623 675 q 706 673 739 610 q 772 550 754 434 q 739 336 686 200 q 661 135 627 61 q 619 44 612 28 q 605 14 598 0 q 591 -15 586 -26 q 568 -64 558 -94 q 548 -123 544 -145 q 539 -167 540 -182 q 540 -198 543 -208 q 550 -232 572 -237 q 589 -242 608 -234 q 628 -226 648 -210 q 669 -194 689 -172 q 709 -151 727 -127 q 770 -72 814 1 q 860 89 896 157 q 933 225 961 276 q 989 328 1008 364 q 1028 400 1040 424 q 1057 457 1074 486 q 1090 515 1104 536 q 1119 561 1133 582 q 1162 625 1188 657 q 1214 689 1236 712 q 1259 734 1278 748 q 1298 762 1314 770 q 1351 789 1378 785 q 1394 781 1398 768 q 1400 762 1400 755 q 1314 714 1224 578 q 1134 443 1043 230 q 998 124 986 31 q 974 -62 986 -128 q 998 -195 1030 -230 q 1062 -264 1105 -253 q 1128 -247 1144 -235 q 1160 -223 1171 -210 q 1118 -189 1109 -149 q 1104 -128 1112 -111 q 1121 -94 1136 -85 q 1150 -76 1168 -76 q 1185 -77 1199 -90 q 1211 -101 1215 -114 q 1219 -127 1220 -139 q 1220 -151 1218 -160 q 1215 -170 1214 -174 q 1283 -186 1350 -178 q 1417 -169 1492 -155 q 1552 -143 1594 -140 q 1602 -139 1619 -138 q 1636 -136 1660 -135 q 1683 -134 1711 -135 q 1739 -136 1768 -140 q 1813 -145 1846 -158 q 1880 -170 1903 -182 q 1929 -197 1949 -213 q 1963 -226 1966 -237 q 1970 -248 1970 -256 q 1969 -266 1965 -274 q 1956 -286 1945 -290 q 1935 -294 1921 -291 q 1907 -288 1889 -271 q 1866 -249 1846 -232 q 1825 -216 1808 -204 q 1796 -195 1778 -187 q 1763 -180 1741 -174 q 1719 -168 1689 -165 z m 1165 -160 q 1168 -162 1172 -164 q 1179 -167 1192 -170 q 1194 -162 1194 -155 q 1195 -148 1195 -143 q 1194 -137 1193 -132 q 1189 -115 1180 -108 q 1176 -104 1171 -102 q 1164 -101 1157 -103 q 1150 -105 1145 -110 q 1140 -115 1138 -122 q 1137 -129 1140 -137 q 1143 -145 1150 -150 q 1157 -156 1165 -160 z"},"o":{"x_min":0,"x_max":314,"ha":314,"o":"m 268 269 q 269 256 267 238 q 265 223 260 200 q 255 177 243 148 q 253 146 268 146 q 283 147 298 148 q 313 150 327 152 q 341 155 349 158 q 357 160 358 158 q 359 156 357 151 q 355 146 350 138 q 333 133 315 129 q 298 126 277 124 q 256 122 231 124 q 209 84 184 58 q 159 31 137 15 q 132 11 114 -1 q 96 -13 72 -22 q 64 -24 55 -26 q 47 -28 37 -29 q 27 -30 16 -28 q 4 -26 -9 -22 q -22 -19 -34 -10 q -46 -2 -50 14 q -55 31 -55 52 q -55 73 -50 98 q -45 122 -37 146 q -31 163 -24 176 q -18 190 -13 199 q -7 210 -1 217 q -15 237 -19 259 q -23 281 -20 302 q -16 322 -6 340 q 3 358 16 371 q 36 392 62 400 q 87 408 109 409 q 135 410 160 404 q 192 396 212 382 q 233 368 246 350 q 258 331 263 310 q 268 289 268 269 z m 88 183 q 99 177 112 173 q 123 168 139 164 q 155 160 174 158 q 190 196 198 232 q 206 269 202 298 q 200 320 191 336 q 182 351 172 360 q 161 370 151 376 q 141 381 135 383 q 121 387 108 386 q 96 386 87 384 q 76 381 67 377 q 55 371 45 358 q 35 345 28 328 q 22 311 20 292 q 19 272 25 253 q 39 271 50 284 q 62 297 73 306 q 82 315 93 321 q 102 326 113 330 q 124 333 135 329 q 147 324 150 313 q 153 302 150 287 q 146 272 136 254 q 127 237 115 221 q 110 214 103 204 q 96 195 88 183 z m 33 -6 q 39 -7 45 -4 q 51 -1 56 2 q 61 6 66 10 q 95 34 119 66 q 143 98 161 133 q 140 136 124 140 q 107 145 96 149 q 83 153 73 159 q 62 140 51 120 q 40 99 32 80 q 23 60 18 42 q 13 25 14 13 q 16 -4 33 -6 z"},"N":{"x_min":0,"x_max":960,"ha":960,"o":"m 185 -275 q 182 -268 182 -258 q 182 -249 184 -241 q 186 -231 189 -221 q 197 -188 216 -142 q 236 -97 262 -45 q 287 7 316 64 q 345 121 372 178 q 400 234 423 288 q 446 341 460 387 q 477 442 482 482 q 487 521 485 549 q 483 580 474 598 q 464 616 453 625 q 440 636 423 639 q 376 645 338 626 q 300 607 270 574 q 239 542 217 503 q 195 464 180 430 q 176 420 170 405 q 165 390 160 370 q 158 359 155 348 q 153 339 150 328 q 148 317 147 309 q 145 284 136 273 q 128 262 118 258 q 107 254 93 257 q 82 261 74 268 q 67 274 63 285 q 59 296 64 313 q 72 345 88 379 q 103 413 119 441 q 137 474 159 503 q 184 541 210 570 q 236 599 262 621 q 332 676 405 675 q 487 672 521 610 q 554 550 536 434 q 531 405 524 374 q 516 342 505 307 q 531 352 564 400 q 592 442 630 494 q 669 545 716 599 q 781 673 835 712 q 897 756 948 754 q 951 754 962 753 q 973 752 988 747 q 1002 742 1017 732 q 1032 723 1043 705 q 1073 654 1033 561 q 1028 553 1024 543 q 1020 535 1014 524 q 1009 514 1003 503 q 967 442 930 368 q 894 295 857 210 q 812 104 800 11 q 788 -82 800 -148 q 812 -215 844 -250 q 876 -284 919 -273 q 942 -267 958 -256 q 975 -244 986 -230 q 932 -210 923 -169 q 918 -148 926 -131 q 935 -114 950 -105 q 965 -96 982 -96 q 999 -97 1013 -110 q 1025 -121 1029 -134 q 1033 -147 1034 -159 q 1034 -171 1032 -180 q 1029 -190 1028 -194 q 1097 -206 1164 -198 q 1231 -190 1307 -175 q 1336 -169 1362 -166 q 1387 -162 1408 -160 q 1416 -159 1433 -158 q 1450 -156 1474 -156 q 1497 -155 1525 -156 q 1553 -157 1582 -161 q 1627 -166 1660 -178 q 1694 -190 1717 -202 q 1743 -216 1763 -233 q 1777 -246 1780 -258 q 1784 -269 1784 -277 q 1783 -287 1779 -295 q 1770 -306 1759 -310 q 1749 -314 1736 -312 q 1722 -309 1704 -292 q 1680 -269 1660 -252 q 1639 -236 1622 -224 q 1611 -216 1593 -208 q 1578 -201 1556 -195 q 1533 -189 1504 -186 q 1491 -185 1478 -185 q 1466 -185 1455 -185 q 1443 -185 1431 -186 q 1398 -190 1366 -198 q 1335 -205 1302 -214 q 1269 -223 1234 -232 q 1198 -240 1157 -244 q 1111 -249 1074 -247 q 1036 -245 1007 -237 q 991 -262 972 -275 q 954 -288 937 -294 q 918 -301 899 -302 q 863 -306 829 -288 q 795 -271 770 -234 q 744 -196 730 -139 q 716 -82 721 -6 q 726 70 752 164 q 779 257 835 367 q 872 439 905 494 q 938 549 968 591 q 995 633 1000 658 q 1004 683 998 696 q 991 709 980 713 q 969 717 966 717 q 928 720 877 680 q 826 641 769 574 q 712 508 652 423 q 592 338 536 251 q 481 164 433 83 q 385 2 352 -56 q 330 -98 308 -140 q 285 -182 261 -223 q 255 -232 249 -242 q 244 -250 238 -259 q 232 -268 226 -275 q 217 -283 210 -286 q 203 -288 197 -286 q 191 -284 188 -280 q 186 -277 185 -275 z m 981 -181 q 985 -183 989 -185 q 998 -188 1007 -190 q 1010 -172 1009 -163 q 1008 -157 1007 -152 q 1005 -143 1002 -137 q 998 -131 994 -128 q 990 -124 985 -123 q 979 -122 972 -124 q 965 -126 960 -130 q 955 -135 953 -142 q 951 -149 954 -157 q 957 -165 965 -171 q 973 -177 981 -181 z"},"+":{"x_min":0,"x_max":353,"ha":353,"o":"m 301 219 q 306 219 312 217 q 319 215 324 211 q 330 207 334 200 q 337 193 335 181 q 333 167 325 158 q 317 148 306 142 q 296 137 284 134 q 271 131 261 131 l 209 131 q 201 112 192 92 q 183 73 174 52 q 171 46 165 40 q 159 35 150 32 q 141 29 131 31 q 121 33 111 44 q 103 53 100 62 q 96 71 96 80 q 95 89 96 96 q 98 104 100 109 q 104 116 109 129 q 96 129 84 128 q 71 128 57 127 q 51 127 43 130 q 35 134 29 140 q 23 147 20 157 q 18 167 23 181 q 27 192 34 199 q 41 206 48 210 q 56 214 64 216 q 71 218 76 219 q 90 220 108 220 q 127 221 151 221 q 162 241 173 264 q 184 286 198 311 q 200 315 204 320 q 209 326 215 329 q 221 332 229 332 q 237 332 246 325 q 269 309 268 283 q 268 257 259 237 q 257 233 256 229 q 254 225 252 221 q 263 220 276 220 q 288 220 301 219 z"},"G":{"x_min":0,"x_max":997,"ha":997,"o":"m 941 197 q 927 155 903 107 q 883 65 849 12 q 815 -41 764 -101 q 743 -160 716 -218 q 689 -276 654 -330 q 578 -446 486 -505 q 381 -572 251 -572 q 231 -572 214 -570 q 198 -567 185 -565 q 170 -562 158 -559 q 67 -535 26 -472 q 6 -438 0 -396 q -2 -375 -1 -354 q 0 -333 3 -316 q 6 -297 11 -278 q 20 -243 34 -217 q 40 -206 47 -196 q 54 -185 63 -178 q 72 -171 83 -168 q 94 -164 106 -166 q 119 -169 126 -177 q 132 -184 134 -196 q 135 -209 124 -229 q 119 -239 110 -252 q 101 -265 91 -280 q 81 -295 73 -313 q 66 -329 60 -351 q 55 -373 56 -399 q 57 -417 63 -436 q 69 -455 82 -472 q 95 -489 116 -504 q 138 -518 170 -526 q 184 -529 197 -532 q 208 -534 222 -536 q 235 -538 248 -538 q 307 -538 362 -510 q 417 -482 468 -436 q 518 -391 563 -332 q 608 -272 647 -207 q 631 -217 616 -226 q 602 -234 585 -242 q 550 -260 520 -268 q 490 -277 468 -281 q 445 -285 430 -285 q 416 -285 412 -285 q 377 -284 343 -278 q 309 -271 279 -257 q 245 -240 218 -216 q 190 -193 171 -161 q 149 -123 140 -76 q 131 -30 136 25 q 145 149 222 310 q 334 537 488 652 q 560 705 624 726 q 688 748 731 753 q 733 753 750 754 q 768 756 792 753 q 816 750 844 741 q 871 732 894 711 q 950 660 944 560 q 942 519 929 482 q 916 444 891 410 q 878 393 862 375 q 848 360 830 342 q 811 325 788 310 q 763 293 740 282 q 717 271 699 264 q 678 256 658 251 q 624 242 597 241 q 574 240 552 248 q 531 255 527 281 q 525 294 530 305 q 534 314 545 321 q 556 328 579 329 q 595 329 618 326 q 642 322 670 322 q 698 321 729 328 q 760 335 792 356 q 814 371 830 388 q 847 406 858 420 q 871 437 880 453 q 909 503 910 559 q 912 587 908 610 q 905 634 894 652 q 873 689 838 700 q 803 712 768 711 q 743 710 722 706 q 701 701 685 696 q 667 690 651 682 q 619 665 584 639 q 548 613 508 574 q 469 535 427 482 q 385 429 342 358 q 281 259 250 174 q 220 90 214 22 q 207 -47 222 -98 q 237 -150 267 -184 q 297 -219 339 -236 q 381 -252 429 -250 q 469 -247 507 -234 q 545 -222 579 -202 q 613 -183 644 -158 q 674 -133 701 -105 q 743 -23 772 48 q 800 120 815 164 q 823 188 830 210 q 836 231 844 248 q 854 271 867 292 q 880 313 900 316 q 920 319 930 314 q 940 308 945 300 q 965 271 941 197 z m 833 105 q 828 89 822 72 q 817 56 811 38 q 838 82 856 118 q 875 155 885 176 q 899 210 904 230 q 909 251 909 262 q 909 274 906 278 q 903 282 902 282 q 899 281 895 276 q 892 271 887 262 q 882 254 876 238 q 865 213 855 180 q 845 146 833 105 z"},"q":{"x_min":0,"x_max":431,"ha":431,"o":"m 127 -248 q 125 -263 123 -277 q 121 -289 121 -302 q 121 -316 123 -327 q 125 -337 124 -346 q 124 -354 113 -358 q 105 -361 97 -360 q 89 -358 84 -356 q 73 -350 67 -340 q 61 -331 57 -320 q 53 -310 52 -300 q 51 -291 51 -285 q 50 -274 51 -263 q 52 -252 53 -244 q 54 -234 55 -226 q 60 -198 68 -166 q 76 -134 84 -106 q 95 -69 108 -31 q 122 7 138 44 q 121 26 98 10 q 74 -6 46 -13 q 22 -19 1 -12 q -20 -6 -32 14 q -45 34 -47 68 q -49 102 -36 151 q -26 189 -11 220 q 4 252 18 274 q 35 300 52 319 q 70 340 88 354 q 106 368 120 376 q 137 386 153 391 q 164 395 176 396 q 187 397 200 395 q 213 393 227 386 q 235 381 242 375 q 248 370 254 362 q 260 353 264 341 q 266 336 267 330 q 268 325 268 318 q 267 311 265 303 q 270 309 275 314 q 280 319 285 324 q 295 334 305 340 q 313 345 323 348 q 333 352 343 347 q 366 336 358 305 q 351 274 325 234 q 316 220 303 197 q 290 174 278 148 q 267 121 260 94 q 252 68 254 49 q 256 42 260 35 q 263 28 276 34 q 287 40 301 54 q 315 68 327 82 q 341 99 355 119 q 370 141 384 164 q 398 187 410 207 q 422 227 432 242 q 441 258 448 266 q 449 267 451 267 q 456 267 461 265 q 465 264 464 257 q 464 252 448 218 q 428 175 403 135 q 382 101 354 66 q 326 32 294 12 q 292 12 285 8 q 278 5 268 2 q 257 0 244 0 q 230 1 217 7 q 209 -10 197 -39 q 185 -68 172 -103 q 158 -138 146 -176 q 134 -214 127 -248 z m 125 81 q 135 92 148 109 q 161 126 173 143 q 187 162 201 184 q 208 198 213 210 q 218 221 222 229 q 225 237 228 242 q 232 248 234 253 l 239 263 q 240 270 240 281 q 241 292 240 302 q 238 312 234 320 q 231 328 224 331 q 202 341 170 314 q 137 286 101 236 q 83 212 66 180 q 50 147 38 116 q 26 85 21 60 q 16 35 20 25 q 25 14 36 15 q 46 16 55 21 q 69 27 81 37 q 93 47 103 57 q 114 68 125 81 z"},"d":{"x_min":0,"x_max":426,"ha":426,"o":"m 187 110 q 182 99 174 88 q 167 78 158 66 q 148 53 134 40 q 117 23 94 8 q 72 -7 46 -13 q 22 -19 1 -12 q -20 -6 -32 14 q -45 34 -47 68 q -49 102 -36 151 q -25 189 -10 220 q 4 252 18 274 q 34 300 52 319 q 70 340 88 354 q 106 368 120 376 q 137 386 153 391 q 164 395 176 396 q 187 397 200 395 q 213 393 227 386 q 234 382 240 377 q 245 372 250 366 q 256 359 261 350 q 283 402 308 450 q 334 499 357 539 q 380 579 398 608 q 416 636 424 648 q 444 679 459 698 q 474 716 488 729 q 499 739 510 745 q 520 750 530 752 q 541 754 552 746 q 560 740 561 728 q 562 716 558 701 q 553 686 544 670 q 535 653 524 637 l 502 604 q 491 588 478 566 q 464 545 448 518 q 434 494 421 469 q 409 448 396 424 q 382 400 371 379 q 337 314 311 252 q 300 226 290 198 q 279 170 270 144 q 262 117 258 92 q 253 68 254 49 q 255 43 258 36 q 262 29 273 33 q 293 41 316 64 q 338 86 358 111 q 380 140 402 174 q 416 194 431 219 q 446 244 457 259 q 460 263 463 266 q 468 271 472 270 q 476 268 480 263 q 483 258 478 248 q 470 232 460 215 q 452 201 442 184 q 431 166 421 150 q 400 114 376 83 q 355 57 328 33 q 301 9 270 3 q 256 0 238 1 q 219 2 202 17 q 194 23 190 34 q 187 45 186 58 q 185 71 186 84 q 186 98 187 110 z m 184 159 q 194 174 204 188 q 213 222 225 254 q 229 265 232 276 q 236 286 240 297 q 239 309 236 318 q 232 328 224 331 q 202 341 170 314 q 138 286 101 236 q 83 212 66 180 q 50 147 38 116 q 26 85 21 60 q 16 35 20 25 q 25 14 36 15 q 47 16 55 21 q 69 27 81 37 q 93 47 103 57 q 114 68 125 81 q 142 100 156 120 q 171 140 184 159 z"},"1":{"x_min":0,"x_max":372,"ha":372,"o":"m 455 739 q 457 737 458 734 q 460 731 456 727 q 403 687 351 610 q 299 534 247 425 q 238 408 223 377 q 208 346 189 304 q 170 262 150 210 q 129 159 110 101 q 64 -23 54 -114 l 54 -118 q 53 -127 54 -140 q 54 -152 58 -164 q 62 -177 70 -188 q 77 -199 91 -206 q 100 -211 111 -212 q 118 -213 125 -215 q 139 -219 149 -227 q 157 -235 160 -246 q 164 -257 157 -271 q 156 -272 154 -276 q 144 -291 124 -288 q 104 -286 89 -280 q 86 -279 82 -277 q 74 -273 71 -271 q 15 -241 -7 -175 q -24 -122 -16 -50 q -9 13 16 96 q 23 119 31 142 q 39 164 49 189 q 86 286 123 363 q 160 440 181 481 q 216 547 246 594 q 277 641 304 674 q 277 664 253 657 q 229 650 210 645 q 192 640 181 637 q 170 634 169 634 l 165 634 q 151 634 149 647 q 147 654 151 660 q 155 665 162 667 q 162 667 180 672 q 199 676 228 684 q 257 693 293 706 q 329 719 365 737 q 373 743 386 750 q 400 756 417 756 q 439 756 455 739 z"},"5":{"x_min":0,"x_max":642,"ha":642,"o":"m 706 701 q 709 696 712 684 q 715 672 704 661 q 701 658 697 656 q 693 654 688 652 q 683 651 677 653 q 665 656 658 666 q 652 675 638 683 q 607 700 541 710 q 475 720 363 715 q 315 677 268 609 q 220 541 172 444 q 200 436 236 424 q 273 411 312 393 q 352 375 391 351 q 430 327 463 297 q 506 257 519 208 q 532 160 530 115 q 528 95 526 77 q 523 59 519 44 q 514 30 503 2 q 492 -25 473 -57 q 426 -133 365 -185 q 303 -238 244 -260 q 185 -281 143 -286 q 141 -286 134 -287 q 126 -288 113 -288 q 87 -288 60 -281 q 34 -274 -3 -245 q -34 -222 -53 -188 q -67 -164 -76 -140 q -84 -116 -89 -96 q -94 -73 -96 -51 q -101 -16 -97 10 q -94 33 -83 52 q -72 70 -46 70 q -33 69 -23 63 q -15 58 -9 46 q -3 34 -5 12 q -7 -4 -14 -32 q -22 -59 -26 -90 q -30 -122 -25 -153 q -20 -184 2 -206 q 24 -227 47 -236 q 70 -244 91 -245 q 112 -246 131 -242 q 150 -238 166 -233 q 181 -228 192 -223 q 203 -218 209 -215 q 234 -200 262 -178 q 291 -157 320 -125 q 348 -93 376 -50 q 404 -7 429 51 q 449 97 446 138 q 442 178 422 213 q 402 248 370 278 q 337 307 300 331 q 262 355 223 373 q 184 391 152 403 q 144 405 136 408 q 129 411 122 413 q 99 423 94 445 q 94 447 93 448 q 91 460 94 470 q 97 480 99 484 q 144 569 182 622 q 221 675 253 707 l 253 708 q 256 711 275 725 q 294 739 325 748 q 332 750 338 751 q 345 752 353 753 q 375 755 397 756 q 419 757 440 758 q 549 761 610 751 q 687 738 706 701 z"}}}
